<svg xmlns="http://www.w3.org/2000/svg" width="256" height="256" viewBox="0 0 256 256" id="adobe-lightroom">
  <g>
    <rect width="240" height="232" x="8" y="12" fill="#001e36" rx="42"></rect>
  </g>
  <path fill="#31a8ff" d="M143 104h17a1.84 1.84 0 011.83 1.33A23.4 23.4 0 01164 114c6.42-8.3 14.32-12 24.84-12a1 1 0 011.16 1.16v17.66c0 .89-.44 1.27-1.33 1.16-9.63-.55-17.27.71-22.8 6.24A5.24 5.24 0 00164 132v50.84c0 .77-.44 1.16-1.33 1.16H145.49c-1 0-1.49-.44-1.49-1.33V126c0-13.42-1-15.33-2-20.84C141.89 104.39 142.22 104 143 104zM129.52 184h-62c-1 0-1.53-.57-1.53-1.7V77.36A1.2 1.2 0 0167.36 76H85c.68 0 1 .4 1 1.19V168h46.75c1 0 1.41.46 1.19 1.36l-2.72 13.28A1.61 1.61 0 01129.52 184z"></path>
</svg>
