<svg xmlns="http://www.w3.org/2000/svg" xmlns:xlink="http://www.w3.org/1999/xlink" id="google-analytics" width="2500" height="2498" viewBox="0 0 152.1 152">
  <linearGradient id="SVGID_1_" x2="152.1" y1="77.32" y2="77.32" gradientTransform="matrix(1 0 0 -1 0 153.32)" gradientUnits="userSpaceOnUse">
    <stop offset="0" stop-color="#fff" stop-opacity=".1"></stop>
    <stop offset="1" stop-color="#fff" stop-opacity="0"></stop>
  </linearGradient>
  <path d="M139.8 0h-27.7c-6.7 0-12.2 5.5-12.2 12.2V48H59.8C53.3 48 48 53.3 48 59.9V100H11.9C5.3 100 0 105.3 0 111.9v28c0 6.6 5.3 11.9 11.9 12.1h128c6.7 0 12.2-5.5 12.2-12.2V12.2C152 5.5 146.5 0 139.8 0z" style="fill:url(#SVGID_1_)"></path>
  <linearGradient id="SVGID_2_" x2="152.1" y1="77.32" y2="77.32" gradientTransform="matrix(1 0 0 -1 0 153.32)" gradientUnits="userSpaceOnUse">
    <stop offset="0" stop-color="#fff" stop-opacity=".1"></stop>
    <stop offset="1" stop-color="#fff" stop-opacity="0"></stop>
  </linearGradient>
  <path d="M139.8 0h-27.7c-6.7 0-12.2 5.5-12.2 12.2V48H59.8C53.3 48 48 53.3 48 59.9V100H11.9C5.3 100 0 105.3 0 111.9v28c0 6.6 5.3 11.9 11.9 12.1h128c6.7 0 12.2-5.5 12.2-12.2V12.2C152 5.5 146.5 0 139.8 0z" style="fill:url(#SVGID_2_)"></path>
  <defs>
    <path id="SVGID_3_" d="M139.8 0h-27.5c-6.7 0-12.2 5.5-12.2 12.2V48h-40c-6.6 0-12 5.4-12 12v40H12c-6.6 0-12 5.4-12 12v28c0 6.6 5.4 12 12 12h127.8c6.7 0 12.2-5.5 12.2-12.2V12.2C152 5.5 146.5 0 139.8 0z"></path>
  </defs>
  <clipPath id="SVGID_4_">
    <use xlink:href="#SVGID_3_" overflow="visible"></use>
  </clipPath>
  <g style="clip-path:url(#SVGID_4_)">
    <path d="M139.8 0h-27.5c-6.7 0-12.2 5.5-12.2 12.2V152h39.7c6.7 0 12.2-5.5 12.2-12.2V12.2C152 5.5 146.5 0 139.8 0z" style="fill:#f57c00"></path>
    <path d="M48 60v40H12c-6.6 0-12 5.4-12 12v28c0 6.6 5.4 12 12 12h88V48H60c-6.6 0-12 5.4-12 12z" style="fill:#ffc107"></path>
  </g>
  <defs>
    <path id="SVGID_5_" d="M139.8 0h-27.5c-6.7 0-12.2 5.5-12.2 12.2V48h-40c-6.6 0-12 5.4-12 12v40H12c-6.6 0-12 5.4-12 12v28c0 6.6 5.4 12 12 12h127.8c6.7 0 12.2-5.5 12.2-12.2V12.2C152 5.5 146.5 0 139.8 0z"></path>
  </defs>
  <clipPath id="SVGID_6_">
    <use xlink:href="#SVGID_5_" overflow="visible"></use>
  </clipPath>
  <linearGradient id="SVGID_7_" x1="74.25" x2="148.36" y1="79.07" y2="4.96" gradientTransform="matrix(1 0 0 -1 0 153.32)" gradientUnits="userSpaceOnUse">
    <stop offset="0" stop-color="#bf360c" stop-opacity=".2"></stop>
    <stop offset="1" stop-color="#bf360c" stop-opacity=".02"></stop>
  </linearGradient>
  <path d="M100 48v104h39.7c6.7 0 12.2-5.5 12.2-12.2V100L100 48z" style="clip-path:url(#SVGID_6_);fill:url(#SVGID_7_)"></path>
  <g>
    <defs>
      <path id="SVGID_8_" d="M139.8 0h-27.5c-6.7 0-12.2 5.5-12.2 12.2V48h-40c-6.6 0-12 5.4-12 12v40H12c-6.6 0-12 5.4-12 12v28c0 6.6 5.4 12 12 12h127.8c6.7 0 12.2-5.5 12.2-12.2V12.2C152 5.5 146.5 0 139.8 0z"></path>
    </defs>
    <clipPath id="SVGID_9_">
      <use xlink:href="#SVGID_8_" overflow="visible"></use>
    </clipPath>
    <path d="M60 49h40v-1H60c-6.6 0-12 5.4-12 12v1c0-6.6 5.4-12 12-12z" style="clip-path:url(#SVGID_9_);enable-background:new;fill:#fff;opacity:.2"></path>
  </g>
  <g>
    <defs>
      <path id="SVGID_10_" d="M139.8 0h-27.5c-6.7 0-12.2 5.5-12.2 12.2V48h-40c-6.6 0-12 5.4-12 12v40H12c-6.6 0-12 5.4-12 12v28c0 6.6 5.4 12 12 12h127.8c6.7 0 12.2-5.5 12.2-12.2V12.2C152 5.5 146.5 0 139.8 0z"></path>
    </defs>
    <clipPath id="SVGID_11_">
      <use xlink:href="#SVGID_10_" overflow="visible"></use>
    </clipPath>
    <path d="M12 101h36v-1H12c-6.6 0-12 5.4-12 12v1c0-6.6 5.4-12 12-12z" style="clip-path:url(#SVGID_11_);enable-background:new;fill:#fff;opacity:.2"></path>
  </g>
  <g>
    <defs>
      <path id="SVGID_12_" d="M139.8 0h-27.5c-6.7 0-12.2 5.5-12.2 12.2V48h-40c-6.6 0-12 5.4-12 12v40H12c-6.6 0-12 5.4-12 12v28c0 6.6 5.4 12 12 12h127.8c6.7 0 12.2-5.5 12.2-12.2V12.2C152 5.5 146.5 0 139.8 0z"></path>
    </defs>
    <clipPath id="SVGID_13_">
      <use xlink:href="#SVGID_12_" overflow="visible"></use>
    </clipPath>
    <path d="M139.8 0h-27.5c-6.7 0-12.2 5.5-12.2 12.2v1c0-6.7 5.5-12.2 12.2-12.2h27.5c6.7 0 12.2 5.5 12.2 12.2v-1C152 5.5 146.5 0 139.8 0z" style="clip-path:url(#SVGID_13_);enable-background:new;fill:#fff;opacity:.2"></path>
  </g>
  <g>
    <defs>
      <path id="SVGID_14_" d="M139.8 0h-27.5c-6.7 0-12.2 5.5-12.2 12.2V48h-40c-6.6 0-12 5.4-12 12v40H12c-6.6 0-12 5.4-12 12v28c0 6.6 5.4 12 12 12h127.8c6.7 0 12.2-5.5 12.2-12.2V12.2C152 5.5 146.5 0 139.8 0z"></path>
    </defs>
    <clipPath id="SVGID_15_">
      <use xlink:href="#SVGID_14_" overflow="visible"></use>
    </clipPath>
    <path d="M139.8 151H12c-6.6 0-12-5.4-12-12v1c0 6.6 5.4 12 12 12h127.7c6.7 0 12.2-5.5 12.2-12.2v-1c.1 6.7-5.4 12.2-12.1 12.2z" style="clip-path:url(#SVGID_15_);enable-background:new;fill:#bf360c;opacity:.2"></path>
  </g>
  <linearGradient id="SVGID_16_" x1="50.969" x2="149.295" y1="102.289" y2="3.963" gradientTransform="matrix(1 0 0 -1 0 153.32)" gradientUnits="userSpaceOnUse">
    <stop offset="0" stop-color="#fff" stop-opacity=".1"></stop>
    <stop offset="1" stop-color="#fff" stop-opacity="0"></stop>
  </linearGradient>
  <path d="M139.8 0h-27.5c-6.7 0-12.2 5.5-12.2 12.2V48h-40c-6.6 0-12 5.4-12 12v40H12c-6.6 0-12 5.4-12 12v28c0 6.6 5.4 12 12 12h127.8c6.7 0 12.2-5.5 12.2-12.2V12.2C152 5.5 146.5 0 139.8 0z" style="fill:url(#SVGID_16_)"></path>
</svg>
