<svg width="629" height="350" viewBox="0 0 629 350" fill="none" xmlns="http://www.w3.org/2000/svg">
                <path opacity="0.42" d="M89.8594 281.117C121.392 281.117 146.955 275.851 146.955 269.355C146.955 262.86 121.392 257.594 89.8594 257.594C58.3263 257.594 32.7637 262.86 32.7637 269.355C32.7637 275.851 58.3263 281.117 89.8594 281.117Z" fill="#B7B7B7" />
                <path opacity="0.42" d="M618.332 263.305C618.332 269.8 592.769 275.066 561.236 275.066C529.702 275.066 504.139 269.8 504.139 263.305C504.139 256.809 529.702 251.543 561.236 251.543C592.769 251.543 618.332 256.809 618.332 263.305Z" fill="#B7B7B7" />
                <path d="M206.455 221.909V212.636L247.364 147.909H254.091V162.273H249.545L218.636 211.182V211.909H273.727V221.909H206.455ZM250.273 241V219.091V214.773V147.909H261V241H250.273ZM321.125 242.273C314.277 242.273 308.443 240.409 303.625 236.682C298.807 232.924 295.125 227.485 292.58 220.364C290.034 213.212 288.761 204.576 288.761 194.455C288.761 184.394 290.034 175.803 292.58 168.682C295.155 161.53 298.852 156.076 303.67 152.318C308.519 148.53 314.337 146.636 321.125 146.636C327.913 146.636 333.716 148.53 338.534 152.318C343.383 156.076 347.08 161.53 349.625 168.682C352.201 175.803 353.489 184.394 353.489 194.455C353.489 204.576 352.216 213.212 349.67 220.364C347.125 227.485 343.443 232.924 338.625 236.682C333.807 240.409 327.973 242.273 321.125 242.273ZM321.125 232.273C327.913 232.273 333.186 229 336.943 222.455C340.701 215.909 342.58 206.576 342.58 194.455C342.58 186.394 341.716 179.53 339.989 173.864C338.292 168.197 335.837 163.879 332.625 160.909C329.443 157.939 325.61 156.455 321.125 156.455C314.398 156.455 309.14 159.773 305.352 166.409C301.564 173.015 299.67 182.364 299.67 194.455C299.67 202.515 300.519 209.364 302.216 215C303.913 220.636 306.352 224.924 309.534 227.864C312.746 230.803 316.61 232.273 321.125 232.273ZM368.58 221.909V212.636L409.489 147.909H416.216V162.273H411.67L380.761 211.182V211.909H435.852V221.909H368.58ZM412.398 241V219.091V214.773V147.909H423.125V241H412.398Z" fill="#C66D1E" />
                <path d="M217.216 82.448C213.077 82.448 209.323 81.488 205.952 79.568C202.581 77.6053 199.915 74.896 197.952 71.44C196.032 67.9413 195.072 63.9947 195.072 59.6C195.072 55.2053 196.032 51.28 197.952 47.824C199.915 44.3253 202.581 41.616 205.952 39.696C209.323 37.7333 213.077 36.752 217.216 36.752C221.397 36.752 225.173 37.7333 228.544 39.696C231.915 41.616 234.56 44.3253 236.48 47.824C238.4 51.28 239.36 55.2053 239.36 59.6C239.36 63.9947 238.4 67.9413 236.48 71.44C234.56 74.896 231.915 77.6053 228.544 79.568C225.173 81.488 221.397 82.448 217.216 82.448ZM217.216 78.544C220.544 78.544 223.531 77.776 226.176 76.24C228.821 74.704 230.912 72.5067 232.448 69.648C233.984 66.7467 234.752 63.3973 234.752 59.6C234.752 55.8027 233.984 52.4747 232.448 49.616C230.912 46.7573 228.821 44.56 226.176 43.024C223.531 41.488 220.544 40.72 217.216 40.72C213.888 40.72 210.901 41.488 208.256 43.024C205.611 44.56 203.52 46.7573 201.984 49.616C200.448 52.4747 199.68 55.8027 199.68 59.6C199.68 63.3973 200.448 66.7467 201.984 69.648C203.52 72.5067 205.611 74.704 208.256 76.24C210.901 77.776 213.888 78.544 217.216 78.544ZM267.654 82.448C263.515 82.448 259.76 81.488 256.39 79.568C253.019 77.6053 250.352 74.896 248.39 71.44C246.47 67.9413 245.51 63.9947 245.51 59.6C245.51 55.2053 246.47 51.28 248.39 47.824C250.352 44.3253 253.019 41.616 256.39 39.696C259.76 37.7333 263.515 36.752 267.654 36.752C271.835 36.752 275.611 37.7333 278.982 39.696C282.352 41.616 284.998 44.3253 286.918 47.824C288.838 51.28 289.798 55.2053 289.798 59.6C289.798 63.9947 288.838 67.9413 286.918 71.44C284.998 74.896 282.352 77.6053 278.982 79.568C275.611 81.488 271.835 82.448 267.654 82.448ZM267.654 78.544C270.982 78.544 273.968 77.776 276.614 76.24C279.259 74.704 281.35 72.5067 282.886 69.648C284.422 66.7467 285.19 63.3973 285.19 59.6C285.19 55.8027 284.422 52.4747 282.886 49.616C281.35 46.7573 279.259 44.56 276.614 43.024C273.968 41.488 270.982 40.72 267.654 40.72C264.326 40.72 261.339 41.488 258.694 43.024C256.048 44.56 253.958 46.7573 252.422 49.616C250.886 52.4747 250.118 55.8027 250.118 59.6C250.118 63.3973 250.886 66.7467 252.422 69.648C253.958 72.5067 256.048 74.704 258.694 76.24C261.339 77.776 264.326 78.544 267.654 78.544ZM326.603 50.128C326.603 53.968 325.344 57.0613 322.827 59.408C320.31 61.7547 316.534 62.928 311.499 62.928H302.475V82H297.995V37.264H311.499C316.491 37.264 320.246 38.4373 322.763 40.784C325.323 43.1307 326.603 46.2453 326.603 50.128ZM311.499 59.088C318.496 59.088 321.995 56.1013 321.995 50.128C321.995 47.1413 321.163 44.88 319.499 43.344C317.835 41.808 315.168 41.04 311.499 41.04H302.475V59.088H311.499ZM347.688 82.448C344.744 82.448 342.141 81.936 339.88 80.912C337.661 79.888 335.912 78.4587 334.632 76.624C333.352 74.7893 332.669 72.7413 332.584 70.48H337.32C337.533 72.656 338.493 74.576 340.2 76.24C341.907 77.8613 344.403 78.672 347.688 78.672C350.717 78.672 353.107 77.904 354.856 76.368C356.648 74.7893 357.544 72.8053 357.544 70.416C357.544 68.496 357.053 66.96 356.072 65.808C355.091 64.6133 353.875 63.7387 352.424 63.184C350.973 62.5867 348.968 61.9467 346.408 61.264C343.421 60.4533 341.053 59.664 339.304 58.896C337.555 58.128 336.061 56.9333 334.824 55.312C333.587 53.6907 332.968 51.4933 332.968 48.72C332.968 46.416 333.565 44.368 334.76 42.576C335.955 40.7413 337.64 39.312 339.816 38.288C341.992 37.264 344.488 36.752 347.304 36.752C351.443 36.752 354.771 37.776 357.288 39.824C359.848 41.8293 361.32 44.432 361.704 47.632H356.84C356.541 45.7973 355.539 44.176 353.832 42.768C352.125 41.3173 349.821 40.592 346.92 40.592C344.232 40.592 341.992 41.3173 340.2 42.768C338.408 44.176 337.512 46.1173 337.512 48.592C337.512 50.4693 338.003 51.984 338.984 53.136C339.965 54.288 341.181 55.1627 342.632 55.76C344.125 56.3573 346.131 56.9973 348.648 57.68C351.549 58.4907 353.896 59.3013 355.688 60.112C357.48 60.88 358.995 62.0747 360.232 63.696C361.469 65.3173 362.088 67.4933 362.088 70.224C362.088 72.3147 361.533 74.2987 360.424 76.176C359.315 78.0533 357.672 79.568 355.496 80.72C353.32 81.872 350.717 82.448 347.688 82.448ZM389.076 82.32C388.137 82.32 387.348 82 386.708 81.36C386.11 80.72 385.812 79.9307 385.812 78.992C385.812 78.0533 386.11 77.2853 386.708 76.688C387.348 76.048 388.137 75.728 389.076 75.728C389.972 75.728 390.718 76.048 391.316 76.688C391.956 77.2853 392.276 78.0533 392.276 78.992C392.276 79.9307 391.956 80.72 391.316 81.36C390.718 82 389.972 82.32 389.076 82.32ZM400.701 82.32C399.762 82.32 398.973 82 398.333 81.36C397.735 80.72 397.437 79.9307 397.437 78.992C397.437 78.0533 397.735 77.2853 398.333 76.688C398.973 76.048 399.762 75.728 400.701 75.728C401.597 75.728 402.343 76.048 402.941 76.688C403.581 77.2853 403.901 78.0533 403.901 78.992C403.901 79.9307 403.581 80.72 402.941 81.36C402.343 82 401.597 82.32 400.701 82.32ZM412.326 82.32C411.387 82.32 410.598 82 409.958 81.36C409.36 80.72 409.062 79.9307 409.062 78.992C409.062 78.0533 409.36 77.2853 409.958 76.688C410.598 76.048 411.387 75.728 412.326 75.728C413.222 75.728 413.968 76.048 414.566 76.688C415.206 77.2853 415.526 78.0533 415.526 78.992C415.526 79.9307 415.206 80.72 414.566 81.36C413.968 82 413.222 82.32 412.326 82.32Z" fill="#666666" />
                <path d="M191.972 297.072C191.972 299.232 191.264 300.972 189.848 302.292C188.432 303.612 186.308 304.272 183.476 304.272H178.4V315H175.88V289.836H183.476C186.284 289.836 188.396 290.496 189.812 291.816C191.252 293.136 191.972 294.888 191.972 297.072ZM183.476 302.112C187.412 302.112 189.38 300.432 189.38 297.072C189.38 295.392 188.912 294.12 187.976 293.256C187.04 292.392 185.54 291.96 183.476 291.96H178.4V302.112H183.476ZM210.78 309.024H199.332L197.136 315H194.472L203.652 290.16H206.496L215.64 315H212.976L210.78 309.024ZM210.024 306.936L205.056 293.328L200.088 306.936H210.024ZM239.485 297.18C238.765 295.524 237.661 294.228 236.173 293.292C234.709 292.332 232.981 291.852 230.989 291.852C229.117 291.852 227.437 292.284 225.949 293.148C224.461 294.012 223.285 295.248 222.421 296.856C221.557 298.44 221.125 300.288 221.125 302.4C221.125 304.512 221.557 306.372 222.421 307.98C223.285 309.588 224.461 310.824 225.949 311.688C227.437 312.552 229.117 312.984 230.989 312.984C232.741 312.984 234.313 312.612 235.705 311.868C237.121 311.1 238.249 310.02 239.089 308.628C239.953 307.212 240.445 305.568 240.565 303.696H229.981V301.644H243.229V303.48C243.109 305.688 242.509 307.692 241.429 309.492C240.349 311.268 238.897 312.672 237.073 313.704C235.273 314.736 233.245 315.252 230.989 315.252C228.661 315.252 226.549 314.712 224.653 313.632C222.757 312.528 221.257 311.004 220.153 309.06C219.073 307.092 218.533 304.872 218.533 302.4C218.533 299.928 219.073 297.72 220.153 295.776C221.257 293.808 222.757 292.284 224.653 291.204C226.549 290.1 228.661 289.548 230.989 289.548C233.677 289.548 236.029 290.22 238.045 291.564C240.061 292.908 241.525 294.78 242.437 297.18H239.485ZM250.365 291.888V301.284H259.905V303.372H250.365V312.912H260.985V315H247.845V289.8H260.985V291.888H250.365ZM294.801 315H292.281L278.349 293.832V315H275.829V289.836H278.349L292.281 310.968V289.836H294.801V315ZM311.813 315.252C309.485 315.252 307.373 314.712 305.477 313.632C303.581 312.528 302.081 311.004 300.977 309.06C299.897 307.092 299.357 304.872 299.357 302.4C299.357 299.928 299.897 297.72 300.977 295.776C302.081 293.808 303.581 292.284 305.477 291.204C307.373 290.1 309.485 289.548 311.813 289.548C314.165 289.548 316.289 290.1 318.185 291.204C320.081 292.284 321.569 293.808 322.649 295.776C323.729 297.72 324.269 299.928 324.269 302.4C324.269 304.872 323.729 307.092 322.649 309.06C321.569 311.004 320.081 312.528 318.185 313.632C316.289 314.712 314.165 315.252 311.813 315.252ZM311.813 313.056C313.685 313.056 315.365 312.624 316.853 311.76C318.341 310.896 319.517 309.66 320.381 308.052C321.245 306.42 321.677 304.536 321.677 302.4C321.677 300.264 321.245 298.392 320.381 296.784C319.517 295.176 318.341 293.94 316.853 293.076C315.365 292.212 313.685 291.78 311.813 291.78C309.941 291.78 308.261 292.212 306.773 293.076C305.285 293.94 304.109 295.176 303.245 296.784C302.381 298.392 301.949 300.264 301.949 302.4C301.949 304.536 302.381 306.42 303.245 308.052C304.109 309.66 305.285 310.896 306.773 311.76C308.261 312.624 309.941 313.056 311.813 313.056ZM343.604 289.836V291.924H336.62V315H334.1V291.924H327.08V289.836H343.604ZM371.07 289.836V291.924H359.982V301.32H369.342V303.408H359.982V315H357.462V289.836H371.07ZM386.52 315.252C384.192 315.252 382.08 314.712 380.184 313.632C378.288 312.528 376.788 311.004 375.684 309.06C374.604 307.092 374.064 304.872 374.064 302.4C374.064 299.928 374.604 297.72 375.684 295.776C376.788 293.808 378.288 292.284 380.184 291.204C382.08 290.1 384.192 289.548 386.52 289.548C388.872 289.548 390.996 290.1 392.892 291.204C394.788 292.284 396.276 293.808 397.356 295.776C398.436 297.72 398.976 299.928 398.976 302.4C398.976 304.872 398.436 307.092 397.356 309.06C396.276 311.004 394.788 312.528 392.892 313.632C390.996 314.712 388.872 315.252 386.52 315.252ZM386.52 313.056C388.392 313.056 390.072 312.624 391.56 311.76C393.048 310.896 394.224 309.66 395.088 308.052C395.952 306.42 396.384 304.536 396.384 302.4C396.384 300.264 395.952 298.392 395.088 296.784C394.224 295.176 393.048 293.94 391.56 293.076C390.072 292.212 388.392 291.78 386.52 291.78C384.648 291.78 382.968 292.212 381.48 293.076C379.992 293.94 378.816 295.176 377.952 296.784C377.088 298.392 376.656 300.264 376.656 302.4C376.656 304.536 377.088 306.42 377.952 308.052C378.816 309.66 379.992 310.896 381.48 311.76C382.968 312.624 384.648 313.056 386.52 313.056ZM405.999 289.836V305.676C405.999 308.172 406.587 310.02 407.763 311.22C408.963 312.42 410.595 313.02 412.659 313.02C414.723 313.02 416.331 312.432 417.483 311.256C418.659 310.056 419.247 308.196 419.247 305.676V289.836H421.767V305.64C421.767 308.832 420.915 311.232 419.211 312.84C417.531 314.448 415.335 315.252 412.623 315.252C409.911 315.252 407.703 314.448 405.999 312.84C404.319 311.232 403.479 308.832 403.479 305.64V289.836H405.999ZM446.36 315H443.84L429.908 293.832V315H427.388V289.836H429.908L443.84 310.968V289.836H446.36V315ZM459.52 289.836C462.304 289.836 464.692 290.34 466.684 291.348C468.676 292.356 470.2 293.808 471.256 295.704C472.312 297.6 472.84 299.856 472.84 302.472C472.84 305.064 472.312 307.308 471.256 309.204C470.2 311.076 468.676 312.516 466.684 313.524C464.692 314.508 462.304 315 459.52 315H452.068V289.836H459.52ZM459.52 312.912C463.024 312.912 465.688 312 467.512 310.176C469.36 308.328 470.284 305.76 470.284 302.472C470.284 299.16 469.36 296.58 467.512 294.732C465.688 292.86 463.024 291.924 459.52 291.924H454.588V312.912H459.52Z" fill="#666666" />
                <path d="M6.49396 187.174C6.49396 187.174 1.99542 184.393 0.85518 188.097C-0.28506 191.802 -0.28506 197.216 0.85518 197.643C1.99542 198.071 8.54913 197.643 8.54913 197.643C8.54913 197.643 10.8494 189.385 6.49396 187.174Z" fill="#E02828" />
                <path d="M117.88 189.37C117.88 189.37 107.765 182.247 105.319 193.667C105.319 193.667 107.687 200.013 108.893 211.615C113.11 212.475 117.261 213.474 121.32 214.584C121.318 203.843 120.478 194.027 117.88 189.37Z" fill="#D67C22" />
                <path d="M124.732 259.583L118.533 256.849C118.533 256.849 121.323 234.181 121.32 214.586C117.261 213.476 113.11 212.477 108.893 211.617C109.947 221.755 110.113 235.902 107.031 253.348C107.031 253.348 103.055 264.024 107.45 268.466C111.843 272.907 115.759 271.369 121.305 273.59C126.852 275.812 136.151 276.323 139.902 270.004C143.656 263.681 135.988 252.92 124.732 259.583Z" fill="#E28E33" />
                <path d="M56.5411 182.168C56.5411 182.168 46.4251 174.688 43.9802 186.678C43.9802 186.678 47.0615 195.362 47.9825 211.013C51.9193 210.117 55.9261 209.433 59.9816 208.956C59.9953 197.559 59.1641 187.103 56.5411 182.168Z" fill="#D67C22" />
                <path d="M63.3933 255.887L57.1943 253.018C57.1943 253.018 59.9558 229.461 59.9832 208.961C55.9277 209.437 51.9209 210.121 47.9841 211.018C48.5747 221.068 48.2779 233.982 45.6944 249.343C45.6944 249.343 41.7196 260.552 46.1131 265.216C50.5066 269.881 54.4221 268.266 59.9695 270.596C65.517 272.928 74.8155 273.466 78.5665 266.83C82.3161 260.193 74.6495 248.892 63.3933 255.887Z" fill="#E28E33" />
                <path d="M101.294 68.8526C105.568 61.1586 107.278 51.7566 103.859 43.2086C103.606 42.6529 103.325 42.1429 103.022 41.668C85.7855 47.6356 60.242 63.5487 47.5715 105.923C69.1249 100.368 88.7358 89.2612 101.294 68.8526Z" fill="#E89442" />
                <path d="M127.358 31.3906C127.371 32.4243 127.586 33.3362 127.586 33.3362C127.586 33.3362 127.522 32.5918 127.358 31.3906Z" fill="#E28E33" />
                <path d="M134.52 44.5689C134.52 44.5689 144.472 45.3803 143.248 41.1527C142.024 36.9252 138.109 38.0776 138.109 38.0776C138.109 38.0776 148.386 29.8782 142.268 26.29C136.151 22.7034 132.235 33.8485 132.235 33.8485C132.235 33.8485 132.724 28.7243 129.544 28.467C127.703 28.3178 127.339 29.9696 127.358 31.3899C127.522 32.591 127.586 33.3355 127.586 33.3355C127.586 33.3355 127.371 32.4236 127.358 31.3899C126.647 26.1774 124.056 12.3788 116.697 13.7337C107.643 15.3992 120.979 35.0009 120.979 35.0009C120.979 35.0009 118.288 32.8224 117.309 35.1288C116.33 37.4351 120.49 38.0761 120.49 38.0761C120.49 38.0761 113.206 38.1385 103.02 41.6642C103.324 42.1392 103.605 42.6507 103.857 43.2049C107.276 51.7528 105.567 61.1549 101.292 68.8488C88.7342 89.2574 69.1233 100.364 47.5684 105.92C45.3381 113.377 43.5007 121.644 42.1838 130.833C42.1838 130.833 35.7778 183.133 37.2895 185.668C40.3936 190.867 75.3726 197.303 114.438 195.861C118.077 195.727 121.277 193.295 122.518 189.71L141.17 141.416C147.378 125.34 150.87 108.229 151.182 90.8909C151.519 72.3228 148.386 51.9142 134.52 44.5689Z" fill="#E28E33" />
                <path d="M68.6394 108.524C67.1079 105.488 63.64 102.917 55.9978 104.037C45.2028 105.62 36.4234 120.425 31.7483 130.173C46.1056 125.752 59.3333 118.88 68.6394 108.524Z" fill="#E28E33" />
                <path d="M35.4733 139.798C41.4683 129.307 53.3746 121.446 66.5856 121.393C67.6573 120.432 68.8173 118.786 69.6348 115.932C69.6348 115.932 70.361 111.934 68.6392 108.52C59.3331 118.878 46.1039 125.749 31.7481 130.169C29.3931 135.078 28.0762 138.711 28.0762 138.711C28.0762 138.711 22.2319 138.03 20.9334 145.51C20.9334 145.51 20.2833 149.25 22.5562 150.609C22.5562 150.609 0.153319 183.247 5.02331 196.166C5.02331 196.166 4.15709 200.131 7.9447 201.492C7.9447 201.492 10.4337 206.932 14.1133 205.004C14.1133 205.004 11.0838 212.484 14.9795 213.957C18.8767 215.431 23.2047 214.865 24.7195 208.518C25.1046 206.906 25.8901 201.404 27.3333 193.888C23.908 175.733 25.2112 156.7 35.4733 139.798Z" fill="#E28E33" />
                <path d="M35.4737 139.8C25.2115 156.702 23.9084 175.735 27.3352 193.889C31.575 171.824 41.5098 132.369 63.7909 122.733C63.7909 122.733 65.1032 122.724 66.5859 121.395C53.375 121.448 41.4687 129.309 35.4737 139.8Z" fill="#D67C22" />
                <path d="M46.7798 108.624C46.7798 108.624 60.3485 98.0786 68.6407 108.52C68.6407 108.52 63.1055 101.277 46.7798 108.624Z" fill="#D67C22" />
                <path d="M116.697 13.7356C116.697 13.7356 125.228 10.152 127.472 32.7162C127.472 32.7162 126.059 27.9406 129.544 28.4689C133.029 28.9971 132.235 33.8504 132.235 33.8504C132.235 33.8504 134.647 23.4954 141.531 25.925C148.415 28.3562 140.304 36.4734 138.109 38.0779C138.109 38.0779 142.855 37.2422 143.338 41.6661C143.338 41.6661 140.669 37.3305 136.876 39.2532C136.876 39.2532 145.465 28.8829 140.722 27.9269C135.98 26.9709 132.013 36.0486 132.013 36.0486C132.013 36.0486 131.331 29.8222 129.29 30.7067C127.247 31.5912 127.586 35.8888 127.586 35.8888C127.586 35.8888 123.605 14.5561 116.697 13.7356Z" fill="#EF9C56" />
                <path d="M33.3161 196.08C29.2012 191.231 23.162 191.666 23.162 191.666C20.81 198.223 21.2378 203.702 21.2378 203.702C21.2378 203.702 -2.0557 247.297 9.91149 240.887C19.0364 235.999 29.3549 239.435 33.7439 241.342C34.4289 241.64 35.1657 241.439 35.627 240.952C27.7382 226.88 25.4775 210.079 33.3161 196.08Z" fill="#E02828" />
                <path d="M37.0522 208.188C36.9807 202.311 35.3929 198.525 33.3164 196.078C25.4778 210.078 27.7385 226.878 35.6273 240.951C35.88 240.683 36.0551 240.33 36.0825 239.919C36.4463 234.653 37.2166 221.673 37.0522 208.188Z" fill="#ED3E3E" />
                <path d="M109.493 90.1904C108.315 93.0022 108.193 95.6449 109.219 96.094C110.247 96.5431 112.035 94.6296 113.214 91.8178C114.392 89.006 114.514 86.3617 113.486 85.9126C112.46 85.465 110.671 87.3786 109.493 90.1904Z" fill="#181818" />
                <path d="M132.977 95.8474C132.015 98.7398 132.094 101.386 133.152 101.756C134.212 102.127 135.848 100.083 136.812 97.1901C137.774 94.2976 137.696 91.6518 136.637 91.2819C135.577 90.9104 133.939 92.9549 132.977 95.8474Z" fill="#181818" />
                <path d="M127.741 78.7545C126.779 81.6469 126.857 84.2928 127.916 84.6627C128.976 85.0342 130.613 82.9897 131.576 80.0972C132.538 77.2047 132.461 74.5589 131.401 74.1874C130.342 73.819 128.704 75.8635 127.741 78.7545Z" fill="#181818" />
                <path d="M119.982 120.308C117.294 117.894 113.753 116.597 110.151 116.872C110.095 116.877 110.037 116.881 109.98 116.886C104.279 117.353 102.528 108.684 110.093 106.898C117.659 105.112 126.481 109.207 128.713 115.324C130.668 120.675 125.211 125.008 119.982 120.308Z" fill="#181818" />
                <mask id="mask0_108_434" style={{ maskType: "luminance" }} maskUnits="userSpaceOnUse" x="105" y="106" width="25" height="17">
                    <path d="M119.982 120.308C117.294 117.894 113.753 116.597 110.151 116.872C110.095 116.877 110.037 116.881 109.98 116.886C104.279 117.353 102.528 108.684 110.093 106.898C117.659 105.112 126.481 109.207 128.713 115.324C130.668 120.675 125.211 125.008 119.982 120.308Z" fill="white" />
                </mask>
                <g mask="url(#mask0_108_434)">
                    <path d="M125.481 122.518C124.466 125.121 119.483 125.605 114.353 123.602C109.222 121.599 105.885 117.866 106.902 115.264C107.918 112.662 112.9 112.177 118.032 114.18C123.161 116.184 126.496 119.916 125.481 122.518Z" fill="#D04642" />
                </g>
                <path d="M156.903 138.998C162.863 114.061 146.124 103.77 146.124 103.77L144.317 108.981L136.297 132.119C133.491 148.621 123.559 139.976 123.559 139.976C122.748 137.426 121.774 139.976 121.774 139.976C121.774 139.976 121.774 129.946 121.774 123.402C121.774 116.857 120.151 114.137 117.067 115.837C113.982 117.538 114.957 130.966 114.957 130.966C112.764 127.652 110.979 131.052 110.979 131.052C110.979 131.052 110.33 129.607 108.788 129.777C107.246 129.948 107.165 131.648 107.165 131.648C106.678 130.797 104.568 128.078 102.62 131.648C100.671 135.218 106.028 154.596 114.81 160.377C116.551 161.521 119.011 162.368 121.879 162.8C136.344 159.545 149.325 151.79 156.903 138.998Z" fill="#E28E33" />
                <path d="M121.877 162.798C130.977 164.17 144.221 161.343 151.918 150.362C154.049 147.322 155.765 143.671 156.837 139.296C156.863 139.194 156.879 139.098 156.902 138.996C149.325 151.79 136.344 159.545 121.877 162.798Z" fill="#D67C22" />
                <path d="M138.372 143.224C138.372 143.224 129.716 146.119 121.774 139.978C121.774 139.978 124.643 115.252 118.525 115.355C118.525 115.355 113.259 114.183 114.899 129.994C114.899 129.994 112.434 128.414 110.977 131.054C110.977 131.054 108.345 128.023 107.197 131.393C107.197 131.393 103.463 127.979 102.218 132.252C102.218 132.252 97.4482 157.304 124.321 163.13C124.321 163.13 102.043 157.738 102.897 132.841C102.897 132.841 103.11 131.346 104.713 131.266C106.316 131.185 107.223 133.056 107.223 133.056C107.223 133.056 107.758 130.597 108.986 130.893C110.215 131.186 111.07 132.896 111.07 132.896C111.07 132.896 111.498 130.118 113.342 130.573C115.184 131.027 115.238 133.164 115.238 133.164C115.238 133.164 114.278 115.374 118.338 116.015C122.398 116.656 121.169 141.339 121.169 141.339C121.169 141.339 130.465 149.1 138.372 143.224Z" fill="#D67C22" />
                <path d="M149.773 108.527C149.773 108.527 146.599 126.984 139.118 143.225C139.118 143.225 149.528 126.614 149.773 108.527Z" fill="#D67C22" />
                <path d="M36.1141 240.574C36.1141 245.936 29.4842 250.285 21.3031 250.285C13.122 250.285 6.49219 245.936 6.49219 240.574C6.49219 235.211 13.122 230.863 21.3031 230.863C29.4842 230.865 36.1141 235.211 36.1141 240.574Z" fill="#C91F1F" />
                <path d="M18.6621 240.946V261.046L23.2596 241.616C23.4255 240.911 23.1013 240.179 22.4604 239.843C21.8453 239.522 21.0004 239.241 20.0337 239.366C19.2482 239.468 18.6621 240.153 18.6621 240.946Z" fill="#EAC71B" />
                <path d="M22.722 258.084C22.722 260.15 21.0474 261.823 18.9816 261.823C16.9173 261.823 15.2412 260.148 15.2412 258.084C15.2412 256.018 16.9158 254.344 18.9816 254.344C21.049 254.344 22.722 256.018 22.722 258.084Z" fill="#EAC71B" />
                <path d="M488.818 82.5823C484.804 79.5802 479.932 77.1764 474.071 76.1808C462.14 74.1546 453.993 78.1812 448.972 82.4057C462.244 83.651 475.571 83.8854 488.818 82.5823Z" fill="#E89442" />
                <path d="M488.818 82.5852C475.571 83.8899 462.244 83.6554 448.972 82.4102C444.53 86.149 442.536 90.0447 442.536 90.0447C442.536 90.0447 431.786 97.4692 432.213 100.722C432.636 103.976 434.616 102.845 434.616 102.845C434.616 106.026 436.312 105.39 436.312 105.39C436.312 105.39 433.838 117.905 437.232 118.047C440.627 118.188 443.137 107.952 443.137 107.952C443.137 107.952 443.004 110.497 447.089 109.729C451.172 108.96 450.74 99.6614 450.74 99.6614C454.982 87.6409 467.428 89.1252 467.428 89.1252C479.054 90.1406 487.816 100.642 494.006 112.183C496.299 105.567 497.759 98.6825 497.827 91.8259C495.506 88.6487 492.528 85.3605 488.818 82.5852Z" fill="#E28E33" />
                <path d="M504.619 104.47C504.619 104.47 502.615 98.3955 497.825 91.8281C497.756 98.6833 496.296 105.567 494.003 112.185C502.046 127.179 505.75 143.927 505.75 143.927C507.729 119.602 504.619 104.47 504.619 104.47Z" fill="#D67C22" />
                <path d="M593.726 102.348C593.726 102.348 588.919 114.709 594.857 129.7C594.857 129.7 596.788 129.945 599.421 131.248C600.746 123.102 602.812 115.097 605.52 107.24C602.123 105.159 598.222 103.485 593.726 102.348Z" fill="#D67C22" />
                <path d="M610.285 110.715C613.392 127.919 618.416 145.627 626.767 161.49C627.414 145.405 625.114 123.381 610.285 110.715Z" fill="#E89442" />
                <path d="M610.285 110.713C608.82 109.462 607.24 108.296 605.52 107.242C602.811 115.099 600.746 123.104 599.421 131.25C606.617 134.81 619.075 146.281 611.827 182.309C611.827 182.309 604.436 187.966 604.437 192.421C604.439 196.875 606.878 198.041 606.878 198.041C606.878 198.041 604.967 202.496 608.787 202.496C612.605 202.496 615.788 203.345 616.847 203.875C617.907 204.405 620.666 203.132 622.15 203.875C623.636 204.616 627.134 204.616 628.408 203.45C629.681 202.284 628.831 186.161 624.377 181.282C624.377 181.282 626.309 172.874 626.766 161.486C618.415 145.625 613.392 127.917 610.285 110.713Z" fill="#E28E33" />
                <path d="M530.247 252.359C530.247 252.359 528.437 249.363 526.696 251.244C526.696 251.244 513.952 242.958 507.893 256.746C501.834 270.534 528.993 271.161 535.679 264.685C542.365 258.208 544.454 257.999 544.454 257.999C544.454 257.999 547.17 253.612 544.454 251.732C542.444 250.34 536.999 229.825 535.831 207.906C532.067 208.308 528.331 208.849 524.635 209.573L530.247 252.359Z" fill="#E28E33" />
                <path d="M536.515 185.092C536.515 185.092 524.189 174.228 520.845 180.704L524.633 209.577C528.331 208.853 532.067 208.312 535.83 207.91C535.422 200.222 535.538 192.361 536.515 185.092Z" fill="#D67C22" />
                <path d="M577.585 246.038C577.585 246.038 579.396 243.044 581.136 244.926C581.136 244.926 593.88 236.64 599.94 250.427C605.998 264.215 578.839 264.843 572.155 258.366C565.468 251.889 563.378 251.68 563.378 251.68C563.378 251.68 560.662 247.293 563.378 245.413C565.389 244.021 570.833 223.506 572.001 201.586C575.767 201.988 579.501 202.53 583.198 203.253L577.585 246.038Z" fill="#E28E33" />
                <path d="M571.317 178.771C571.317 178.771 583.645 167.908 586.987 174.384L583.199 203.257C579.501 202.532 575.767 201.99 572.002 201.59C572.41 193.902 572.294 186.042 571.317 178.771Z" fill="#D67C22" />
                <path d="M537.308 27.3203C537.476 27.7329 537.637 27.9749 537.637 27.9749C537.637 27.9749 537.524 27.739 537.308 27.3203Z" fill="#E28E33" />
                <path d="M586.643 86.3982C589.96 88.4397 593.349 90.265 596.806 91.9061C593.979 70.6571 587.517 50.4739 574.312 38.5965C571.827 36.3632 569.098 34.4344 566.117 32.8359C559.648 50.9458 570.27 76.5745 586.643 86.3982Z" fill="#E89442" />
                <path d="M586.643 86.3985C570.268 76.5733 559.649 50.9461 566.117 32.8362C563.773 31.5773 561.274 30.5177 558.598 29.7063C558.598 29.7063 579.421 9.7894 567.303 1.43323C555.185 -6.92294 547.665 25.876 547.665 25.876C547.665 25.876 543.904 17.5199 539.517 20.8614C536.238 23.3596 536.81 26.0892 537.308 27.3101C537.524 27.7287 537.637 27.9647 537.637 27.9647C537.637 27.9647 537.477 27.7227 537.308 27.3101C535.21 23.2135 523.447 1.42561 513.403 7.49065C502.331 14.1753 528.652 34.0237 528.652 34.0237C528.652 34.0237 522.04 38.8069 515.275 51.077C504.399 70.7975 493.126 109.862 508.26 179.513C525.744 183.311 544.235 183.162 562.727 179.053C577.632 175.741 589.267 166.354 597.238 154.189C598.733 137.883 599.788 114.302 596.806 91.9064C593.35 90.2653 589.96 88.44 586.643 86.3985Z" fill="#E28E33" />
                <path d="M562.728 179.057C544.236 183.166 525.746 183.315 508.262 179.517C508.763 181.824 509.292 184.163 509.853 186.538C509.853 186.538 521.97 189.046 553.934 186.538C585.898 184.032 594.673 175.048 594.673 175.048C594.673 175.048 596.086 166.79 597.24 154.191C589.267 166.358 577.634 175.745 562.728 179.057Z" fill="#D67C22" />
                <path d="M546.324 67.7031C546.427 70.3185 547.292 72.4208 548.252 72.398C549.216 72.3752 549.913 70.2363 549.81 67.6209C549.708 65.0055 548.842 62.9031 547.878 62.926C546.919 62.9503 546.222 65.0877 546.324 67.7031Z" fill="#181818" />
                <path d="M532.499 85.8828C532.601 88.4982 533.467 90.6005 534.429 90.5777C535.393 90.5549 536.09 88.416 535.987 85.8006C535.883 83.1852 535.018 81.0828 534.056 81.1057C533.094 81.1285 532.397 83.2674 532.499 85.8828Z" fill="#181818" />
                <path d="M562.6 81.1057C561.638 81.1285 560.941 83.2674 561.043 85.8828C561.145 88.4982 562.011 90.6005 562.973 90.5777C563.937 90.5549 564.634 88.416 564.529 85.8006C564.427 83.1852 563.563 81.0828 562.6 81.1057Z" fill="#181818" />
                <path d="M536.515 104.274C536.515 104.274 547.678 96.5698 562.788 102.623C562.788 102.623 548.468 93.8174 536.515 104.274Z" fill="#BA6315" />
                <path d="M534.244 102.301C534.244 102.301 537.71 102.607 537.466 107.133C537.466 107.133 536.891 104.013 534.244 102.301Z" fill="#BA6315" />
                <path d="M562.176 105.926C562.176 105.926 562.75 102.806 565.399 101.094C565.399 101.094 561.931 101.398 562.176 105.926Z" fill="#BA6315" />
                <path d="M544.621 105.922C544.621 105.922 549.516 103.981 555.02 105.922C555.02 105.922 549.759 102.389 544.621 105.922Z" fill="#BA6315" />
                <path d="M513.403 7.49433C513.403 7.49433 524.108 -1.0963 537.637 27.9684C537.637 27.9684 526.833 7.6831 513.403 7.49433Z" fill="#EF9C56" />
                <path d="M569.619 14.6648C572.441 9.51931 571.627 -1.49946 562.363 0.170561C553.101 1.8421 547.665 25.8815 547.665 25.8815C543.889 18.9959 541.259 18.731 538.42 21.8579C535.58 24.9864 537.637 27.9702 537.637 27.9702C537.595 24.044 540.525 22.9038 540.525 22.9038C546.231 22.4029 548.324 32.5372 548.324 32.5372C548.324 32.5372 554.38 4.64627 562.544 2.71898C570.71 0.794729 569.619 14.6648 569.619 14.6648Z" fill="#EF9C56" />
                
            </svg>