<svg width="235" height="260" viewBox="0 0 235 260" fill="none" xmlns="http://www.w3.org/2000/svg">
<path d="M188.94 218.776C188.419 216.908 187.695 214.756 185.987 212.975C182.783 209.619 178.187 209.559 174.504 209.502L173.821 209.481C162.432 209.281 157.724 206.592 155.751 204.369C151.74 199.804 149.582 191.871 148.917 186.005C147.632 174.617 147.988 164.019 148.575 154.276C148.824 150.122 150.532 146.247 153.412 143.31C159.385 137.19 164.763 130.485 169.535 123.31C197.855 111.666 220.36 87.82 229.851 59.3052C231.045 55.6514 232.149 51.7239 231.794 47.517C231.403 42.4337 228.822 38.032 224.911 35.7918C222.197 34.2256 219.226 33.8517 216.361 33.5632C209.383 32.9147 202.332 32.6774 195.292 32.7448C194.993 27.8975 192.964 23.2783 189.357 19.7359C185.231 15.6166 179.722 13.3884 173.858 13.4828L78.4894 14.8575C72.6255 14.9519 67.0478 17.425 63.1052 21.6356C59.2857 25.743 57.3428 31.0017 57.6195 36.5305C55.7229 36.4785 53.6409 36.3722 51.4801 36.2971C44.5861 35.9976 36.7831 35.6566 31.6343 36.2691C28.7892 36.6276 25.821 37.0892 23.169 38.7174C19.3502 41.0786 16.9038 45.5719 16.6853 50.6778C16.5081 54.8761 17.7289 58.7412 19.0482 62.3492C32.7675 100.677 62.877 118.99 86.073 127.663C91.2945 134.042 97.1611 139.566 103.504 143.993C107.732 146.944 110.37 151.997 110.609 157.522C110.72 160.607 110.786 163.763 110.776 166.913L110.773 166.951C110.759 172.758 110.557 178.549 110.11 184.09C109.543 191.443 108.224 199.566 102.905 204.301C99.3184 207.48 94.2546 208.859 88.8792 210.325C87.0873 210.814 85.3365 211.268 83.6136 211.838C80.9553 212.669 77.8868 213.843 75.374 216.053C69.4869 221.194 69.8509 230.071 70.124 236.511C70.3726 242.796 75.2977 247.783 81.5616 248.331C82.0144 248.37 82.4705 248.372 82.8889 248.371L178.903 247.015C182.404 246.979 185.77 245.452 188.082 242.921C190.395 240.39 191.515 237.147 191.239 233.782C190.866 228.055 190.035 222.781 188.94 218.776ZM117.418 184.008C117.746 179.823 117.933 175.512 118.007 171.19C125.639 171.744 133.255 171.613 140.814 170.832C140.832 174.972 141.064 179.282 141.439 183.68C133.531 184.545 125.459 184.674 117.418 184.008ZM140.922 163.515C133.36 164.334 125.706 164.461 118.036 163.904C118.004 161.662 117.934 159.416 117.861 157.207C117.775 155.15 117.418 153.145 116.866 151.198C124.474 151.598 132.673 151.328 141.846 150.347C141.593 151.501 141.374 152.697 141.307 153.906C141.187 157.008 141.02 160.221 140.922 163.515ZM221.316 42.1207C223.488 43.3736 224.43 46.0755 224.588 48.1773C224.828 51.0835 223.948 54.1953 222.97 57.1088C215.23 80.3861 198.164 100.304 176.289 112.171C187.723 91.0007 194.282 66.4433 195.335 40.0754C202.111 39.9849 208.933 40.2401 215.722 40.872C217.835 41.0569 219.869 41.2728 221.316 42.1207ZM25.8778 59.9097C24.842 56.9719 23.8194 53.8834 23.9567 51.0102C24.0625 48.9316 24.9102 46.1965 27.0009 44.8989C28.4073 44.0349 30.4124 43.7168 32.5241 43.4839C37.0591 42.9316 44.5225 43.2429 51.1492 43.5569C53.6118 43.6585 55.9612 43.7502 58.0843 43.822C59.1809 59.103 61.1681 75.0693 66.1957 90.6183C69.2568 99.9592 73.2896 108.626 78.1183 116.451C58.4928 106.952 36.7011 90.0499 25.8778 59.9097ZM73.0908 88.2985C67.8173 72.0826 65.9763 55.7494 64.8682 36.2536C64.6498 32.666 65.903 29.2071 68.4175 26.542C71.0585 23.736 74.6605 22.115 78.5801 22.0783L173.984 20.7446C174.477 20.7498 175.009 20.7584 175.5 20.8013C178.82 21.0918 181.891 22.4994 184.269 24.8713C186.895 27.4547 188.306 30.8809 188.257 34.4831C187.864 75.4863 173.649 112.357 148.261 138.304C146.928 139.63 145.881 141.171 144.906 142.756C132.836 144.244 122.693 144.571 113.376 143.718C111.822 141.494 109.901 139.542 107.715 138.022C92.3373 127.338 80.0422 109.672 73.0908 88.2985ZM182.773 237.977C181.766 239.065 180.379 239.703 178.856 239.722L82.8425 241.078C79.9894 241.094 77.5571 238.907 77.4171 236.162C77.1652 229.914 77.1789 224.107 80.1874 221.447C81.7121 220.1 83.9109 219.305 85.8669 218.679C87.5078 218.177 89.1831 217.716 90.8584 217.256C96.7787 215.648 102.932 213.984 107.797 209.664C113.239 204.826 115.544 198.042 116.634 191.228C125.238 191.981 133.882 191.826 142.37 190.861C143.338 195.88 145.543 203.704 150.312 209.17C154.599 214.063 162.252 216.555 173.72 216.723L174.403 216.744C176.985 216.781 179.605 216.82 180.758 217.984C181.316 218.564 181.676 219.659 181.934 220.63C182.879 224.167 183.661 229.133 184.087 234.257C184.195 235.633 183.74 236.922 182.773 237.977Z" stroke="black"/>
<path d="M125.065 94.5192C126.059 94.4543 127.488 95.0728 128.772 95.6028L144.077 102.332C145.321 102.897 146.784 102.683 147.848 101.827C148.911 100.971 149.376 99.5693 149.076 98.2143L144.798 79.3143C144.603 78.5 144.384 77.5317 144.506 77.0109C144.647 76.264 145.765 75.2229 146.51 74.5289L158.12 63.5105C159.115 62.5725 159.508 61.1264 159.088 59.8369C158.672 58.5097 157.578 57.5409 156.229 57.309L133.479 53.5344L123.194 35.931C122.501 34.7314 121.192 34.0475 119.776 34.1514C118.397 34.2586 117.18 35.1391 116.684 36.4623L110.464 52.356C110.267 52.8702 110.06 53.4975 109.888 54.1657C109.728 54.6833 109.461 55.571 109.311 55.9755C108.962 56.0588 108.382 56.16 107.995 56.24C107.495 56.3101 106.991 56.4178 106.604 56.4979L89.7801 60.6065C88.5363 60.9153 87.5417 61.8532 87.1655 63.111C86.7926 64.3312 87.13 65.6894 87.9976 66.6384L100.455 79.8384C100.944 80.3367 101.429 80.8727 101.657 81.3102C102.075 82.182 101.851 83.8707 101.705 85.1107L99.6809 100.422C99.4901 101.734 100.061 103.037 101.168 103.855C101.704 104.244 102.332 104.451 102.974 104.507C103.615 104.563 104.273 104.431 104.869 104.141L122.462 95.5822C123.383 95.0553 124.338 94.5695 125.065 94.5192ZM107.716 94.6337L108.851 86.0017C109.108 83.9362 109.533 80.8224 108.106 78.0023C107.426 76.652 106.49 75.621 105.722 74.8326L97.5433 66.1829L108.306 63.556C108.576 63.5037 108.847 63.4515 109.193 63.4058C110.814 63.1301 113.015 62.7531 114.525 61.139C115.785 59.7687 116.328 57.918 116.815 56.2524C116.931 55.8069 117.083 55.3647 117.188 55.0322L120.668 46.1118L128.007 58.7121C128.535 59.6314 129.467 60.2824 130.555 60.4535L147.794 63.3284L141.45 69.3409C140.08 70.6636 137.967 72.6426 137.333 75.5482C136.884 77.6349 137.323 79.5714 137.657 80.9673L140.344 92.8568L131.63 89.0195C129.799 88.214 127.233 87.1164 124.398 87.3618C122.327 87.5603 120.581 88.3946 119.192 89.0702L107.716 94.6337Z" stroke="black"/>
</svg>
