<svg width="189" height="210" viewBox="0 0 189 210" fill="none" xmlns="http://www.w3.org/2000/svg">
<path d="M89.5417 209.333C47.8027 209.333 26.9332 209.333 13.9667 194.078C1 178.824 1 154.271 1 105.167C1 56.0621 1 31.5097 13.9667 16.2549C26.9332 0.999999 47.8027 1 89.5417 1C131.28 1 152.15 0.999999 165.117 16.2549C175.554 28.5346 177.591 46.839 177.988 79.125" stroke="black" stroke-linecap="round" stroke-linejoin="round"/>
<path d="M53.0833 63.5H126M53.0833 115.583H84.3333" stroke="black" stroke-linecap="round" stroke-linejoin="round"/>
<path d="M174.012 168.766C182.793 162.374 188.5 152.016 188.5 140.324C188.5 120.908 172.76 105.168 153.344 105.168H150.74C131.323 105.168 115.583 120.908 115.583 140.324C115.583 152.016 121.291 162.374 130.071 168.766M174.012 168.766C168.211 172.989 161.069 175.48 153.344 175.48H150.74C143.015 175.48 135.872 172.989 130.071 168.766M174.012 168.766L180.083 187.88C182.399 195.171 183.557 198.817 183.241 201.087C182.581 205.811 178.728 209.318 174.179 209.335C171.994 209.343 168.719 207.624 162.17 204.188C159.361 202.714 157.957 201.976 156.521 201.543C153.594 200.661 150.489 200.661 147.562 201.543C146.126 201.976 144.722 202.714 141.913 204.188C135.365 207.624 132.089 209.343 129.904 209.335C125.355 209.318 121.502 205.811 120.843 201.087C120.526 198.817 121.684 195.171 124 187.88L130.071 168.766" stroke="black"/>
</svg>
