<svg width="200" height="169" viewBox="0 0 200 169" fill="none" xmlns="http://www.w3.org/2000/svg">
<path d="M53.0833 141.625V27.0417C53.0833 17.306 53.0833 12.4383 50.99 8.8125C49.6186 6.43719 47.6461 4.46469 45.2708 3.09334C41.645 1 36.7773 1 27.0417 1C17.306 1 12.4383 1 8.8125 3.09334C6.43719 4.46469 4.46469 6.43719 3.09333 8.8125C0.999999 12.4383 1 17.306 1 27.0417V141.625C1 151.36 0.999999 156.228 3.09333 159.854C4.46469 162.229 6.43719 164.202 8.8125 165.573C12.4383 167.667 17.306 167.667 27.0417 167.667C36.7773 167.667 41.645 167.667 45.2708 165.573C47.6461 164.202 49.6186 162.229 50.99 159.854C53.0833 156.228 53.0833 151.36 53.0833 141.625Z" stroke="black" stroke-linecap="round" stroke-linejoin="round"/>
<path d="M105.167 141.625V58.2917C105.167 48.556 105.167 43.6883 103.073 40.0625C101.702 37.6872 99.7291 35.7147 97.3541 34.3433C93.728 32.25 88.8603 32.25 79.1249 32.25C69.3893 32.25 64.5216 32.25 60.8958 34.3433C58.5204 35.7147 56.5479 37.6872 55.1766 40.0625C53.0833 43.6883 53.0833 48.556 53.0833 58.2917V141.625C53.0833 151.36 53.0833 156.228 55.1766 159.854C56.5479 162.229 58.5204 164.202 60.8958 165.573C64.5216 167.667 69.3893 167.667 79.1249 167.667C88.8603 167.667 93.728 167.667 97.3541 165.573C99.7291 164.202 101.702 162.229 103.073 159.854C105.167 156.228 105.167 151.36 105.167 141.625Z" stroke="black" stroke-linecap="round" stroke-linejoin="round"/>
<path d="M169.536 61.2153C166.207 52.0573 164.542 47.4783 161.332 44.7852C159.231 43.0226 156.704 41.8439 154.003 41.3677C149.877 40.6399 145.299 42.3078 136.144 45.6437C126.999 48.9756 122.427 50.6415 119.736 53.849C117.976 55.9484 116.798 58.4737 116.322 61.1719C115.594 65.2943 117.256 69.8682 120.582 79.0141L145.535 147.644C148.866 156.803 150.53 161.382 153.74 164.074C155.841 165.837 158.369 167.016 161.069 167.492C165.195 168.22 169.773 166.553 178.929 163.216C188.074 159.885 192.646 158.218 195.335 155.011C197.096 152.912 198.274 150.386 198.75 147.688C199.478 143.566 197.816 138.992 194.49 129.845L169.536 61.2153Z" stroke="black" stroke-linecap="round" stroke-linejoin="round"/>
</svg>
