<svg width="178" height="178" viewBox="0 0 178 178" fill="none" xmlns="http://www.w3.org/2000/svg">
<path d="M101.107 161.174C99.125 156.389 99.125 150.322 99.125 138.188C99.125 126.053 99.125 119.986 101.107 115.201C103.75 108.82 108.82 103.75 115.201 101.107C119.986 99.125 126.053 99.125 138.188 99.125C150.322 99.125 156.389 99.125 161.174 101.107C167.555 103.75 172.625 108.82 175.268 115.201C177.25 119.986 177.25 126.053 177.25 138.188C177.25 150.322 177.25 156.389 175.268 161.174C172.625 167.555 167.555 172.625 161.174 175.268C156.389 177.25 150.322 177.25 138.188 177.25C126.053 177.25 119.986 177.25 115.201 175.268C108.82 172.625 103.75 167.555 101.107 161.174Z" stroke="black" stroke-linecap="square" stroke-linejoin="round"/>
<path d="M101.107 63.0491C99.125 58.2633 99.125 52.1964 99.125 40.0625C99.125 27.9286 99.125 21.8617 101.107 17.0759C103.75 10.695 108.82 5.62542 115.201 2.98229C119.986 1 126.053 1 138.188 1C150.322 1 156.389 1 161.174 2.98229C167.555 5.62542 172.625 10.695 175.268 17.0759C177.25 21.8617 177.25 27.9286 177.25 40.0625C177.25 52.1964 177.25 58.2633 175.268 63.0491C172.625 69.43 167.555 74.5 161.174 77.1427C156.389 79.125 150.322 79.125 138.188 79.125C126.053 79.125 119.986 79.125 115.201 77.1427C108.82 74.5 103.75 69.43 101.107 63.0491Z" stroke="black" stroke-linecap="square" stroke-linejoin="round"/>
<path d="M2.98229 161.174C1 156.389 1 150.322 1 138.188C1 126.053 1 119.986 2.98229 115.201C5.62542 108.82 10.695 103.75 17.0759 101.107C21.8617 99.125 27.9286 99.125 40.0625 99.125C52.1964 99.125 58.2633 99.125 63.0491 101.107C69.43 103.75 74.5 108.82 77.1427 115.201C79.125 119.986 79.125 126.053 79.125 138.188C79.125 150.322 79.125 156.389 77.1427 161.174C74.5 167.555 69.43 172.625 63.0491 175.268C58.2633 177.25 52.1964 177.25 40.0625 177.25C27.9286 177.25 21.8617 177.25 17.0759 175.268C10.695 172.625 5.62542 167.555 2.98229 161.174Z" stroke="black" stroke-linecap="square" stroke-linejoin="round"/>
<path d="M2.98229 63.0491C1 58.2633 1 52.1964 1 40.0625C1 27.9286 1 21.8617 2.98229 17.0759C5.62542 10.695 10.695 5.62542 17.0759 2.98229C21.8617 1 27.9286 1 40.0625 1C52.1964 1 58.2633 1 63.0491 2.98229C69.43 5.62542 74.5 10.695 77.1427 17.0759C79.125 21.8617 79.125 27.9286 79.125 40.0625C79.125 52.1964 79.125 58.2633 77.1427 63.0491C74.5 69.43 69.43 74.5 63.0491 77.1427C58.2633 79.125 52.1964 79.125 40.0625 79.125C27.9286 79.125 21.8617 79.125 17.0759 77.1427C10.695 74.5 5.62542 69.43 2.98229 63.0491Z" stroke="black" stroke-linecap="square" stroke-linejoin="round"/>
</svg>
