<svg width="169" height="189" viewBox="0 0 169 189" fill="none" xmlns="http://www.w3.org/2000/svg">
<path d="M126 84.3346C126 61.3228 107.345 42.668 84.3332 42.668C61.3213 42.668 42.6665 61.3228 42.6665 84.3346C42.6665 107.346 61.3213 126.001 84.3332 126.001C107.345 126.001 126 107.346 126 84.3346Z" stroke="black" stroke-linecap="round" stroke-linejoin="round"/>
<path d="M12.1485 126C5.05813 113.743 1 99.5115 1 84.3333C1 38.3096 38.3096 1 84.3333 1C130.357 1 167.667 38.3096 167.667 84.3333C167.667 99.5115 163.608 113.743 156.518 126" stroke="black" stroke-linecap="round" stroke-linejoin="round"/>
<path d="M146.833 188.5C146.833 153.982 118.851 126 84.3333 126C49.8154 126 21.8333 153.982 21.8333 188.5" stroke="black" stroke-linecap="round" stroke-linejoin="round"/>
</svg>
