<svg width="229" height="228" viewBox="0 0 229 228" fill="none" xmlns="http://www.w3.org/2000/svg">
<path d="M69.8752 67.1883V67.1794M69.8752 67.1794C69.2449 67.1883 68.6235 67.3482 68.0819 67.668C66.3685 68.6629 65.7915 70.8569 66.7858 72.5713L77.7764 91.6256H77.7676C78.247 92.4517 79.0282 93.0558 79.9515 93.3045C80.8659 93.5532 81.8514 93.4288 82.677 92.9491C83.5026 92.4783 84.1152 91.6877 84.3638 90.7639C84.6035 89.8312 84.4703 88.8451 83.9909 88.0191L72.9734 68.9649C72.3342 67.8633 71.1537 67.1794 69.8752 67.1794ZM46.3577 101.361V101.352M46.3577 101.352C44.7331 101.361 43.3127 102.454 42.8955 104.017C42.6469 104.941 42.78 105.927 43.2506 106.753C43.73 107.579 44.5201 108.174 45.4434 108.423L66.6793 114.117C68.588 114.632 70.5588 113.495 71.0738 111.577C71.3224 110.653 71.1893 109.676 70.7098 108.849C70.2393 108.023 69.4492 107.419 68.5259 107.171L47.29 101.477V101.485C46.9881 101.397 46.6685 101.352 46.3577 101.352ZM16.0125 1C7.765 1 1 7.74218 1 15.9948V184.686C1 192.938 7.77386 199.689 16.0125 199.689H70.283C72.2627 199.68 73.8607 198.064 73.8518 196.083C73.8518 194.111 72.2538 192.512 70.283 192.503H16.0216C11.627 192.503 8.1825 189.083 8.1825 184.686L8.17362 47.5842H221.101V184.686C221.101 189.083 217.656 192.503 213.262 192.503H176.685C175.735 192.494 174.82 192.876 174.145 193.542C173.471 194.217 173.089 195.132 173.089 196.083C173.08 197.042 173.462 197.957 174.137 198.641C174.811 199.316 175.735 199.689 176.685 199.689H213.253C221.5 199.689 228.265 192.938 228.265 184.686L228.274 15.9949C228.274 7.74256 221.5 1.00016 213.262 1.00016L16.0125 1ZM16.0125 8.17743H213.26C217.655 8.17743 221.099 11.5974 221.099 15.9946V40.3954H8.17205V15.9946C8.17205 11.5974 11.618 8.17743 16.0125 8.17743ZM26.9943 19.4323C24.3398 19.4323 22.1293 21.6442 22.1293 24.309C22.1293 26.9652 24.331 29.1592 26.9943 29.1592C29.6489 29.1592 31.8416 26.9651 31.8416 24.309C31.8416 21.6529 29.6488 19.4323 26.9943 19.4323ZM45.3893 19.4323C42.7348 19.4323 40.5243 21.6442 40.5243 24.309C40.5243 26.9652 42.726 29.1592 45.3893 29.1592C48.0439 29.1592 50.2366 26.9651 50.2366 24.309C50.2366 21.6529 48.0438 19.4323 45.3893 19.4323ZM63.7843 19.4323C61.1298 19.4323 58.9193 21.6442 58.9193 24.309C58.9193 26.9652 61.121 29.1592 63.7843 29.1592C66.4389 29.1592 68.6316 26.9651 68.6316 24.309C68.6316 21.6529 66.4388 19.4323 63.7843 19.4323ZM111.218 63.8927C109.594 63.8838 108.173 64.9764 107.756 66.5488L102.057 87.7973V87.8062C101.808 88.7211 101.932 89.7072 102.412 90.5333C102.891 91.3594 103.681 91.9635 104.596 92.2033C105.519 92.452 106.496 92.3188 107.321 91.848C108.147 91.3683 108.75 90.5866 108.99 89.6627L114.69 68.4142C114.938 67.4904 114.805 66.5044 114.335 65.6783C113.855 64.8522 113.065 64.257 112.142 64.0083C111.84 63.9283 111.529 63.8839 111.218 63.8839L111.218 63.8927ZM91.6259 95.4982C85.2339 95.667 79.3211 100.819 79.3123 107.864C79.3212 107.872 79.33 107.881 79.3389 107.89L79.2057 201.775C79.1969 209.637 88.048 214.727 94.8573 210.81L119.014 196.925L133.45 221.806C136.148 226.452 142.194 228.06 146.846 225.386L166.413 214.122C171.065 211.448 172.707 205.39 170.017 200.744L155.609 175.888L179.729 161.995C186.538 158.078 186.547 147.853 179.729 143.945L97.9814 97.1033C95.9395 95.9308 93.7555 95.4333 91.6248 95.4866L91.6259 95.4982ZM91.6623 102.578C92.5767 102.578 93.5178 102.818 94.4411 103.342L176.162 150.192C178.487 151.525 178.487 154.447 176.162 155.789L148.916 171.476L148.907 171.458C148.082 171.938 147.478 172.72 147.229 173.644C146.981 174.559 147.105 175.545 147.584 176.371L163.795 204.353C164.541 205.641 164.142 207.151 162.845 207.898L143.279 219.161C141.974 219.908 140.393 219.49 139.647 218.211L123.437 190.228L123.428 190.219C122.433 188.514 120.241 187.937 118.527 188.923L91.2818 204.583C88.9559 205.925 86.3813 204.424 86.3813 201.776L86.5145 107.864V107.846C86.5411 104.719 88.9293 102.57 91.6547 102.57L91.6623 102.578Z" stroke="black"/>
</svg>
