<svg width="26" height="29" viewBox="0 0 26 29" fill="none" xmlns="http://www.w3.org/2000/svg">
<path d="M14.8139 6.75182L16.1011 5.76747L17.9301 8.15848L16.691 8.95769C16.5223 8.90559 16.3569 8.85904 16.2016 8.82467C16.1838 8.79475 16.167 8.76482 16.1491 8.73489L14.6452 6.53344C14.71 6.59773 14.767 6.6709 14.8139 6.75182Z" fill="#1A1F2C"/>
<path d="M14.5325 23.5554C13.9906 23.0178 13.3012 22.6697 12.5437 22.5444C11.0789 22.3083 7.8019 21.3318 5.57518 17.3889C5.73942 17.4321 5.90477 17.4532 6.07349 17.4532C6.45897 17.4532 6.84889 17.3412 7.17851 17.1173C7.61201 16.8247 7.90699 16.3824 8.00641 15.8703C8.04105 15.6984 8.04552 15.5266 8.03211 15.3548C8.30026 15.4834 8.59524 15.5521 8.89466 15.5521C9.27119 15.5521 9.65778 15.4446 9.99072 15.2163C10.5807 14.8205 10.8969 14.1455 10.8443 13.4615C11.117 13.5945 11.4075 13.6588 11.7024 13.6588C12.0879 13.6588 12.47 13.5469 12.803 13.3196C13.0544 13.1478 13.2532 12.9372 13.3963 12.6878C13.5091 12.7055 13.6298 12.7177 13.7516 12.7011C14.67 12.5769 15.3984 12.4262 15.6889 12.3652L16.0532 12.6789C15.7671 12.894 15.3638 13.2941 15.1392 13.9426C14.7839 14.979 15.0051 16.2649 15.7984 17.7559C15.8677 17.8801 16.0241 17.9322 16.1493 17.8634C16.2744 17.7947 16.3269 17.6395 16.2577 17.5154C15.5381 16.1564 15.3258 15.0168 15.6297 14.1189C15.9158 13.2676 16.5705 12.9539 16.5962 12.945C16.6789 12.9107 16.7347 12.8331 16.7481 12.7477C16.7616 12.6613 16.7269 12.5715 16.661 12.516L15.9325 11.8886C15.8677 11.8332 15.7806 11.8111 15.7023 11.8332C15.6934 11.8332 14.8308 12.035 13.6867 12.1902C13.5348 12.2112 13.3136 12.1381 13.2443 12.1126C13.2353 12.1081 13.2264 12.1081 13.2231 12.1037L13.2186 12.0993C13.1493 12.0815 13.08 12.056 13.0108 12.0305C12.9672 12.0128 12.9236 11.9962 12.8856 11.9784C12.6599 11.8842 12.4432 11.7589 12.2488 11.6004C12.1359 11.5107 12.0711 11.3765 12.0711 11.2302C12.0711 11.0795 12.1404 10.942 12.2622 10.8478L12.8823 10.3789L13.9828 9.54863C14.3515 9.26929 14.8018 9.14071 15.261 9.17839C15.3605 9.18726 15.4644 9.19945 15.5683 9.21276C15.6029 9.21719 15.6376 9.22162 15.6677 9.22606C15.7672 9.24379 15.8666 9.25599 15.9672 9.27816C17.48 9.58298 19.4387 10.5895 19.7636 13.7541C19.7636 13.763 19.7636 13.7674 19.7681 13.7752C19.7725 13.7885 20.0239 15.1597 19.5379 17.1072C19.5167 17.1937 19.5424 17.2879 19.6072 17.3522L20.5602 18.2977L14.9055 23.9243L14.5325 23.5554Z" fill="#1A1F2C"/>
<path d="M17.376 27.2864C17.1291 27.5314 16.7257 27.5314 16.4788 27.2864L14.8151 25.6359C14.5682 25.3909 14.5682 24.9908 14.8151 24.7458L21.3849 18.2278C21.5067 18.107 21.6709 18.0427 21.8318 18.0427C21.9927 18.0427 22.157 18.1026 22.2788 18.2278L23.9424 19.8784C24.1893 20.1233 24.1893 20.5235 23.9424 20.7685L17.376 27.2864Z" fill="#1A1F2C"/>
<path d="M16.4307 4.96383C16.5212 4.40514 16.777 3.88084 17.1546 3.48512C17.8094 2.789 18.758 2.50522 19.4429 2.38439C19.7155 2.33673 20.0194 2.30237 20.3613 2.2813L23.1567 4.92172C22.3892 6.32727 20.8864 8.44787 18.8875 8.1851C18.7657 8.16736 18.6495 8.10307 18.5713 8.00442L16.5166 5.32632C16.4439 5.22101 16.4094 5.08797 16.4307 4.96383Z" fill="#1A1F2C"/>
<path d="M21.6272 2.24583C21.8004 2.24583 21.9736 2.24139 22.1467 2.23696C22.9356 2.22366 23.7378 2.1505 24.3959 1.80687C24.2529 2.38773 23.9277 3.38093 23.4037 4.43841L21.0853 2.25027C21.2719 2.25027 21.4496 2.25026 21.6272 2.24583Z" fill="#1A1F2C"/>
<path d="M11.7414 5.75419C11.9839 5.59124 12.2654 5.50921 12.5515 5.50921C12.642 5.50921 12.7336 5.51808 12.8241 5.53471C13.2006 5.60787 13.5302 5.81848 13.747 6.13662L15.4978 8.70388C15.433 8.69501 15.3682 8.69057 15.3023 8.68614C14.7168 8.63404 14.1369 8.80697 13.6643 9.15947L12.785 9.82568L12.6677 9.64944L11.3627 7.73619C10.9135 7.08328 11.0878 6.19316 11.7414 5.75419Z" fill="#1A1F2C"/>
<path d="M8.2699 6.69197C8.58611 6.47692 8.97156 6.39934 9.3492 6.47249C9.72573 6.54565 10.0553 6.75626 10.2721 7.0744L10.9224 8.02438L12.3659 10.1349L11.9458 10.4531C11.6944 10.6426 11.5514 10.9308 11.5514 11.2445C11.5514 11.5461 11.6855 11.8298 11.9246 12.0183C12.1112 12.169 12.31 12.2887 12.5178 12.3918C12.5223 12.3918 12.5268 12.3963 12.5313 12.3963C12.5838 12.4218 12.6352 12.4484 12.6877 12.4694C12.7525 12.4994 12.8173 12.5249 12.8866 12.547H12.891C12.7961 12.68 12.6743 12.7964 12.5223 12.8951C12.0284 13.2265 11.3916 13.2265 10.9011 12.8907C10.7491 12.7876 10.624 12.6623 10.5246 12.5127L8.55255 9.62728C8.54808 9.61842 8.53915 9.60955 8.53468 9.60622C8.53021 9.59736 8.52574 9.59292 8.52574 9.59292L7.89336 8.66845C7.44309 8.02443 7.61182 7.13091 8.2699 6.69197Z" fill="#1A1F2C"/>
<path d="M5.5057 10.4542C5.57944 10.0807 5.79173 9.75364 6.11239 9.54306C6.35038 9.38011 6.63194 9.29808 6.91462 9.29808C7.00512 9.29808 7.09674 9.30695 7.19171 9.32358C7.56042 9.3923 7.88109 9.59848 8.09784 9.89998C8.10231 9.90884 8.11125 9.92104 8.11572 9.92547L10.0877 12.8154C10.1782 12.9529 10.2486 13.0992 10.2866 13.2499C10.4475 13.8352 10.2129 14.4582 9.70115 14.8018C9.04194 15.2452 8.14587 15.0723 7.69895 14.4238L5.72693 11.5339C5.51018 11.2113 5.43197 10.8322 5.5057 10.4542Z" fill="#1A1F2C"/>
<path d="M3.82863 12.2167C4.06662 12.0538 4.34817 11.9717 4.6342 11.9717C4.7247 11.9717 4.81632 11.9806 4.90682 11.9972C5.28335 12.0704 5.61297 12.281 5.82523 12.5991L7.26878 14.7097C7.48554 15.0234 7.56373 15.4058 7.49001 15.7805C7.41627 16.154 7.20398 16.481 6.88331 16.6961C6.41963 17.0053 5.81294 17.0275 5.33585 16.7438C5.15373 16.6318 5.00177 16.4899 4.88112 16.3137L3.44205 14.2064C2.99625 13.5546 3.16942 12.6601 3.82863 12.2167Z" fill="#1A1F2C"/>
<path fill-rule="evenodd" clip-rule="evenodd" d="M22.6495 17.8621C22.1993 17.4154 21.4663 17.4154 21.0161 17.8621L20.9255 17.9519L20.0719 17.105C20.5188 15.1917 20.3021 13.8549 20.2753 13.7085C19.9982 11.0382 18.6116 9.77885 17.2897 9.18576L18.3511 8.50181C18.4897 8.6049 18.6506 8.67806 18.8237 8.69912C18.9668 8.71686 19.1053 8.72462 19.2439 8.72462C21.3019 8.72462 22.8015 6.72491 23.7119 4.98791C24.5353 3.42273 25.0985 1.59144 24.9856 1.19132C24.9599 1.10486 24.8951 1.03613 24.808 1.01064C24.7208 0.985141 24.6258 1.0062 24.561 1.06606C23.9588 1.60812 23.0404 1.69791 22.1387 1.71564C21.9655 1.72008 21.7924 1.72008 21.6225 1.72451C21.2371 1.73449 20.8382 1.73892 20.4438 1.75998C20.0326 1.78104 19.6729 1.81984 19.3477 1.87637C18.2595 2.06593 17.3668 2.49934 16.769 3.13229C16.3266 3.60117 16.0193 4.22416 15.9109 4.8826C15.8897 5.00342 15.8975 5.12757 15.9243 5.24396L14.5031 6.33137L14.169 5.84141C13.8741 5.41132 13.4283 5.12312 12.9121 5.02446C12.4004 4.93024 11.8764 5.03333 11.4428 5.32597C10.9702 5.6441 10.6842 6.13849 10.606 6.66279C10.3155 6.30143 9.9088 6.05203 9.44065 5.96667C8.92446 5.86801 8.40492 5.97553 7.97141 6.26817C7.11779 6.84015 6.8664 7.96638 7.36918 8.84318C7.33902 8.83431 7.31332 8.82544 7.28203 8.82212C6.76584 8.72346 6.2463 8.83099 5.81279 9.12363C5.37929 9.41627 5.08431 9.85854 4.98935 10.3707C4.91114 10.7664 4.96365 11.1699 5.12789 11.5312C5.08879 11.5224 5.04521 11.5102 5.00276 11.5013C4.48321 11.4026 3.96256 11.5102 3.53352 11.8028C2.63633 12.4047 2.40282 13.6174 3.00951 14.5075L3.29107 14.9154L1.44977 16.321C1.4453 16.3254 1.43636 16.3298 1.43189 16.3343C0.92465 16.7899 0.855374 17.5425 1.271 18.0846C1.52686 18.4205 1.91679 18.6 2.31566 18.6C2.55812 18.6 2.80056 18.5357 3.02181 18.3983L4.87653 17.2033C7.20831 21.7139 10.8574 22.8056 12.4563 23.0684C13.1065 23.1714 13.6998 23.473 14.1635 23.933L14.5367 24.3032L14.4462 24.393C13.9959 24.8397 13.9959 25.5669 14.4462 26.0136L16.1098 27.6641C16.3355 27.888 16.6294 28 16.9244 28C17.2193 28 17.5143 27.888 17.7389 27.6641L24.3141 21.134C24.7644 20.6873 24.7644 19.9601 24.3141 19.5134L22.6495 17.8621ZM22.1467 2.23696C21.9736 2.24139 21.8004 2.24583 21.6272 2.24583C21.4496 2.25026 21.2719 2.25027 21.0853 2.25027L23.4037 4.43841C23.9277 3.38093 24.2529 2.38773 24.3959 1.80687C23.7378 2.1505 22.9356 2.22366 22.1467 2.23696ZM17.1546 3.48512C16.777 3.88084 16.5212 4.40514 16.4307 4.96383C16.4094 5.08797 16.4439 5.22101 16.5166 5.32632L18.5713 8.00442C18.6495 8.10307 18.7657 8.16736 18.8875 8.1851C20.8864 8.44787 22.3892 6.32727 23.1567 4.92172L20.3613 2.2813C20.0194 2.30237 19.7155 2.33673 19.4429 2.38439C18.758 2.50522 17.8094 2.789 17.1546 3.48512ZM16.1011 5.76747L14.8139 6.75182C14.767 6.6709 14.71 6.59773 14.6452 6.53344L16.1491 8.73489C16.167 8.76482 16.1838 8.79475 16.2016 8.82467C16.3569 8.85904 16.5223 8.90559 16.691 8.95769L17.9301 8.15848L16.1011 5.76747ZM12.5515 5.50921C12.2654 5.50921 11.9839 5.59124 11.7414 5.75419C11.0878 6.19316 10.9135 7.08328 11.3627 7.73619L12.6677 9.64944L12.785 9.82568L13.6643 9.15947C14.1369 8.80697 14.7168 8.63404 15.3023 8.68614C15.3682 8.69057 15.433 8.69501 15.4978 8.70388L13.747 6.13662C13.5302 5.81848 13.2006 5.60787 12.8241 5.53471C12.7336 5.51808 12.642 5.50921 12.5515 5.50921ZM9.3492 6.47249C8.97156 6.39934 8.58611 6.47692 8.2699 6.69197C7.61182 7.13091 7.44309 8.02443 7.89336 8.66845L8.52574 9.59292C8.52574 9.59292 8.53021 9.59736 8.53468 9.60622C8.53915 9.60955 8.54808 9.61842 8.55255 9.62728L10.5246 12.5127C10.624 12.6623 10.7491 12.7876 10.9011 12.8907C11.3916 13.2265 12.0284 13.2265 12.5223 12.8951C12.6743 12.7964 12.7961 12.68 12.891 12.547H12.8866C12.8173 12.5249 12.7525 12.4994 12.6877 12.4694C12.6352 12.4484 12.5838 12.4218 12.5313 12.3963C12.5268 12.3963 12.5223 12.3918 12.5178 12.3918C12.31 12.2887 12.1112 12.169 11.9246 12.0183C11.6855 11.8298 11.5514 11.5461 11.5514 11.2445C11.5514 10.9308 11.6944 10.6426 11.9458 10.4531L12.3659 10.1349L10.9224 8.02438L10.2721 7.0744C10.0553 6.75626 9.72573 6.54565 9.3492 6.47249ZM6.11239 9.54306C5.79173 9.75364 5.57944 10.0807 5.5057 10.4542C5.43197 10.8322 5.51018 11.2113 5.72693 11.5339L7.69895 14.4238C8.14587 15.0723 9.04194 15.2452 9.70115 14.8018C10.2129 14.4582 10.4475 13.8352 10.2866 13.2499C10.2486 13.0992 10.1782 12.9529 10.0877 12.8154L8.11572 9.92547C8.11125 9.92104 8.10231 9.90884 8.09784 9.89998C7.88109 9.59848 7.56042 9.3923 7.19171 9.32358C7.09674 9.30695 7.00512 9.29808 6.91462 9.29808C6.63194 9.29808 6.35038 9.38011 6.11239 9.54306ZM4.6342 11.9717C4.34817 11.9717 4.06662 12.0538 3.82863 12.2167C3.16942 12.6601 2.99625 13.5546 3.44205 14.2064L4.88112 16.3137C5.00177 16.4899 5.15373 16.6318 5.33585 16.7438C5.81294 17.0275 6.41963 17.0053 6.88331 16.6961C7.20398 16.481 7.41627 16.154 7.49001 15.7805C7.56373 15.4058 7.48554 15.0234 7.26878 14.7097L5.82523 12.5991C5.61297 12.281 5.28335 12.0704 4.90682 11.9972C4.81632 11.9806 4.7247 11.9717 4.6342 11.9717ZM1.68677 17.7636C1.93816 18.0906 2.38954 18.1726 2.74038 17.9532L4.57608 16.766C4.53363 16.715 4.49005 16.6585 4.45095 16.603L3.58394 15.3349L1.77727 16.715C1.47895 16.9899 1.43985 17.441 1.68677 17.7636ZM12.5437 22.5444C13.3012 22.6697 13.9906 23.0178 14.5325 23.5554L14.9055 23.9243L20.5602 18.2977L19.6072 17.3522C19.5424 17.2879 19.5167 17.1937 19.5379 17.1072C20.0239 15.1597 19.7725 13.7885 19.7681 13.7752C19.7636 13.7674 19.7636 13.763 19.7636 13.7541C19.4387 10.5895 17.48 9.58298 15.9672 9.27816C15.8666 9.25599 15.7672 9.24379 15.6677 9.22606C15.6376 9.22162 15.6029 9.21719 15.5683 9.21276C15.4644 9.19945 15.3605 9.18726 15.261 9.17839C14.8018 9.14071 14.3515 9.26929 13.9828 9.54863L12.8823 10.3789L12.2622 10.8478C12.1404 10.942 12.0711 11.0795 12.0711 11.2302C12.0711 11.3765 12.1359 11.5107 12.2488 11.6004C12.4432 11.7589 12.6599 11.8842 12.8856 11.9784C12.9236 11.9962 12.9672 12.0128 13.0108 12.0305C13.08 12.056 13.1493 12.0815 13.2186 12.0993L13.2231 12.1037C13.2264 12.1081 13.2353 12.1081 13.2443 12.1126C13.3136 12.1381 13.5348 12.2112 13.6867 12.1902C14.8308 12.035 15.6934 11.8332 15.7023 11.8332C15.7806 11.8111 15.8677 11.8332 15.9325 11.8886L16.661 12.516C16.7269 12.5715 16.7616 12.6613 16.7481 12.7477C16.7347 12.8331 16.6789 12.9107 16.5962 12.945C16.5705 12.9539 15.9158 13.2676 15.6297 14.1189C15.3258 15.0168 15.5381 16.1564 16.2577 17.5154C16.3269 17.6395 16.2744 17.7947 16.1493 17.8634C16.0241 17.9322 15.8677 17.8801 15.7984 17.7559C15.0051 16.2649 14.7839 14.979 15.1392 13.9426C15.3638 13.2941 15.7671 12.894 16.0532 12.6789L15.6889 12.3652C15.3984 12.4262 14.67 12.5769 13.7516 12.7011C13.6298 12.7177 13.5091 12.7055 13.3963 12.6878C13.2532 12.9372 13.0544 13.1478 12.803 13.3196C12.47 13.5469 12.0879 13.6588 11.7024 13.6588C11.4075 13.6588 11.117 13.5945 10.8443 13.4615C10.8969 14.1455 10.5807 14.8205 9.99072 15.2163C9.65778 15.4446 9.27119 15.5521 8.89466 15.5521C8.59524 15.5521 8.30026 15.4834 8.03211 15.3548C8.04552 15.5266 8.04105 15.6984 8.00641 15.8703C7.90699 16.3824 7.61201 16.8247 7.17851 17.1173C6.84889 17.3412 6.45897 17.4532 6.07349 17.4532C5.90477 17.4532 5.73942 17.4321 5.57518 17.3889C7.8019 21.3318 11.0789 22.3083 12.5437 22.5444ZM16.4788 27.2864C16.7257 27.5314 17.1291 27.5314 17.376 27.2864L23.9424 20.7685C24.1893 20.5235 24.1893 20.1233 23.9424 19.8784L22.2788 18.2278C22.157 18.1026 21.9927 18.0427 21.8318 18.0427C21.6709 18.0427 21.5067 18.107 21.3849 18.2278L14.8151 24.7458C14.5682 24.9908 14.5682 25.3909 14.8151 25.6359L16.4788 27.2864Z" fill="#1A1F2C"/>
<path d="M2.74038 17.9532C2.38954 18.1726 1.93816 18.0906 1.68677 17.7636C1.43985 17.441 1.47895 16.9899 1.77727 16.715L3.58394 15.3349L4.45095 16.603C4.49005 16.6585 4.53363 16.715 4.57608 16.766L2.74038 17.9532Z" fill="#1A1F2C"/>
<path d="M14.8139 6.75182L16.1011 5.76747L17.9301 8.15848L16.691 8.95769C16.5223 8.90559 16.3569 8.85904 16.2016 8.82467C16.1838 8.79475 16.167 8.76482 16.1491 8.73489L14.6452 6.53344C14.71 6.59773 14.767 6.6709 14.8139 6.75182Z" stroke="black"/>
<path d="M14.5325 23.5554C13.9906 23.0178 13.3012 22.6697 12.5437 22.5444C11.0789 22.3083 7.8019 21.3318 5.57518 17.3889C5.73942 17.4321 5.90477 17.4532 6.07349 17.4532C6.45897 17.4532 6.84889 17.3412 7.17851 17.1173C7.61201 16.8247 7.90699 16.3824 8.00641 15.8703C8.04105 15.6984 8.04552 15.5266 8.03211 15.3548C8.30026 15.4834 8.59524 15.5521 8.89466 15.5521C9.27119 15.5521 9.65778 15.4446 9.99072 15.2163C10.5807 14.8205 10.8969 14.1455 10.8443 13.4615C11.117 13.5945 11.4075 13.6588 11.7024 13.6588C12.0879 13.6588 12.47 13.5469 12.803 13.3196C13.0544 13.1478 13.2532 12.9372 13.3963 12.6878C13.5091 12.7055 13.6298 12.7177 13.7516 12.7011C14.67 12.5769 15.3984 12.4262 15.6889 12.3652L16.0532 12.6789C15.7671 12.894 15.3638 13.2941 15.1392 13.9426C14.7839 14.979 15.0051 16.2649 15.7984 17.7559C15.8677 17.8801 16.0241 17.9322 16.1493 17.8634C16.2744 17.7947 16.3269 17.6395 16.2577 17.5154C15.5381 16.1564 15.3258 15.0168 15.6297 14.1189C15.9158 13.2676 16.5705 12.9539 16.5962 12.945C16.6789 12.9107 16.7347 12.8331 16.7481 12.7477C16.7616 12.6613 16.7269 12.5715 16.661 12.516L15.9325 11.8886C15.8677 11.8332 15.7806 11.8111 15.7023 11.8332C15.6934 11.8332 14.8308 12.035 13.6867 12.1902C13.5348 12.2112 13.3136 12.1381 13.2443 12.1126C13.2353 12.1081 13.2264 12.1081 13.2231 12.1037L13.2186 12.0993C13.1493 12.0815 13.08 12.056 13.0108 12.0305C12.9672 12.0128 12.9236 11.9962 12.8856 11.9784C12.6599 11.8842 12.4432 11.7589 12.2488 11.6004C12.1359 11.5107 12.0711 11.3765 12.0711 11.2302C12.0711 11.0795 12.1404 10.942 12.2622 10.8478L12.8823 10.3789L13.9828 9.54863C14.3515 9.26929 14.8018 9.14071 15.261 9.17839C15.3605 9.18726 15.4644 9.19945 15.5683 9.21276C15.6029 9.21719 15.6376 9.22162 15.6677 9.22606C15.7672 9.24379 15.8666 9.25599 15.9672 9.27816C17.48 9.58298 19.4387 10.5895 19.7636 13.7541C19.7636 13.763 19.7636 13.7674 19.7681 13.7752C19.7725 13.7885 20.0239 15.1597 19.5379 17.1072C19.5167 17.1937 19.5424 17.2879 19.6072 17.3522L20.5602 18.2977L14.9055 23.9243L14.5325 23.5554Z" stroke="black"/>
<path d="M17.376 27.2864C17.1291 27.5314 16.7257 27.5314 16.4788 27.2864L14.8151 25.6359C14.5682 25.3909 14.5682 24.9908 14.8151 24.7458L21.3849 18.2278C21.5067 18.107 21.6709 18.0427 21.8318 18.0427C21.9927 18.0427 22.157 18.1026 22.2788 18.2278L23.9424 19.8784C24.1893 20.1233 24.1893 20.5235 23.9424 20.7685L17.376 27.2864Z" stroke="black"/>
<path d="M16.4307 4.96383C16.5212 4.40514 16.777 3.88084 17.1546 3.48512C17.8094 2.789 18.758 2.50522 19.4429 2.38439C19.7155 2.33673 20.0194 2.30237 20.3613 2.2813L23.1567 4.92172C22.3892 6.32727 20.8864 8.44787 18.8875 8.1851C18.7657 8.16736 18.6495 8.10307 18.5713 8.00442L16.5166 5.32632C16.4439 5.22101 16.4094 5.08797 16.4307 4.96383Z" stroke="black"/>
<path d="M21.6272 2.24583C21.8004 2.24583 21.9736 2.24139 22.1467 2.23696C22.9356 2.22366 23.7378 2.1505 24.3959 1.80687C24.2529 2.38773 23.9277 3.38093 23.4037 4.43841L21.0853 2.25027C21.2719 2.25027 21.4496 2.25026 21.6272 2.24583Z" stroke="black"/>
<path d="M11.7414 5.75419C11.9839 5.59124 12.2654 5.50921 12.5515 5.50921C12.642 5.50921 12.7336 5.51808 12.8241 5.53471C13.2006 5.60787 13.5302 5.81848 13.747 6.13662L15.4978 8.70388C15.433 8.69501 15.3682 8.69057 15.3023 8.68614C14.7168 8.63404 14.1369 8.80697 13.6643 9.15947L12.785 9.82568L12.6677 9.64944L11.3627 7.73619C10.9135 7.08328 11.0878 6.19316 11.7414 5.75419Z" stroke="black"/>
<path d="M8.2699 6.69197C8.58611 6.47692 8.97156 6.39934 9.3492 6.47249C9.72573 6.54565 10.0553 6.75626 10.2721 7.0744L10.9224 8.02438L12.3659 10.1349L11.9458 10.4531C11.6944 10.6426 11.5514 10.9308 11.5514 11.2445C11.5514 11.5461 11.6855 11.8298 11.9246 12.0183C12.1112 12.169 12.31 12.2887 12.5178 12.3918C12.5223 12.3918 12.5268 12.3963 12.5313 12.3963C12.5838 12.4218 12.6352 12.4484 12.6877 12.4694C12.7525 12.4994 12.8173 12.5249 12.8866 12.547H12.891C12.7961 12.68 12.6743 12.7964 12.5223 12.8951C12.0284 13.2265 11.3916 13.2265 10.9011 12.8907C10.7491 12.7876 10.624 12.6623 10.5246 12.5127L8.55255 9.62728C8.54808 9.61842 8.53915 9.60955 8.53468 9.60622C8.53021 9.59736 8.52574 9.59292 8.52574 9.59292L7.89336 8.66845C7.44309 8.02443 7.61182 7.13091 8.2699 6.69197Z" stroke="black"/>
<path d="M5.5057 10.4542C5.57944 10.0807 5.79173 9.75364 6.11239 9.54306C6.35038 9.38011 6.63194 9.29808 6.91462 9.29808C7.00512 9.29808 7.09674 9.30695 7.19171 9.32358C7.56042 9.3923 7.88109 9.59848 8.09784 9.89998C8.10231 9.90884 8.11125 9.92104 8.11572 9.92547L10.0877 12.8154C10.1782 12.9529 10.2486 13.0992 10.2866 13.2499C10.4475 13.8352 10.2129 14.4582 9.70115 14.8018C9.04194 15.2452 8.14587 15.0723 7.69895 14.4238L5.72693 11.5339C5.51018 11.2113 5.43197 10.8322 5.5057 10.4542Z" stroke="black"/>
<path d="M3.82863 12.2167C4.06662 12.0538 4.34817 11.9717 4.6342 11.9717C4.7247 11.9717 4.81632 11.9806 4.90682 11.9972C5.28335 12.0704 5.61297 12.281 5.82523 12.5991L7.26878 14.7097C7.48554 15.0234 7.56373 15.4058 7.49001 15.7805C7.41627 16.154 7.20398 16.481 6.88331 16.6961C6.41963 17.0053 5.81294 17.0275 5.33585 16.7438C5.15373 16.6318 5.00177 16.4899 4.88112 16.3137L3.44205 14.2064C2.99625 13.5546 3.16942 12.6601 3.82863 12.2167Z" stroke="black"/>
<path fill-rule="evenodd" clip-rule="evenodd" d="M22.6495 17.8621C22.1993 17.4154 21.4663 17.4154 21.0161 17.8621L20.9255 17.9519L20.0719 17.105C20.5188 15.1917 20.3021 13.8549 20.2753 13.7085C19.9982 11.0382 18.6116 9.77885 17.2897 9.18576L18.3511 8.50181C18.4897 8.6049 18.6506 8.67806 18.8237 8.69912C18.9668 8.71686 19.1053 8.72462 19.2439 8.72462C21.3019 8.72462 22.8015 6.72491 23.7119 4.98791C24.5353 3.42273 25.0985 1.59144 24.9856 1.19132C24.9599 1.10486 24.8951 1.03613 24.808 1.01064C24.7208 0.985141 24.6258 1.0062 24.561 1.06606C23.9588 1.60812 23.0404 1.69791 22.1387 1.71564C21.9655 1.72008 21.7924 1.72008 21.6225 1.72451C21.2371 1.73449 20.8382 1.73892 20.4438 1.75998C20.0326 1.78104 19.6729 1.81984 19.3477 1.87637C18.2595 2.06593 17.3668 2.49934 16.769 3.13229C16.3266 3.60117 16.0193 4.22416 15.9109 4.8826C15.8897 5.00342 15.8975 5.12757 15.9243 5.24396L14.5031 6.33137L14.169 5.84141C13.8741 5.41132 13.4283 5.12312 12.9121 5.02446C12.4004 4.93024 11.8764 5.03333 11.4428 5.32597C10.9702 5.6441 10.6842 6.13849 10.606 6.66279C10.3155 6.30143 9.9088 6.05203 9.44065 5.96667C8.92446 5.86801 8.40492 5.97553 7.97141 6.26817C7.11779 6.84015 6.8664 7.96638 7.36918 8.84318C7.33902 8.83431 7.31332 8.82544 7.28203 8.82212C6.76584 8.72346 6.2463 8.83099 5.81279 9.12363C5.37929 9.41627 5.08431 9.85854 4.98935 10.3707C4.91114 10.7664 4.96365 11.1699 5.12789 11.5312C5.08879 11.5224 5.04521 11.5102 5.00276 11.5013C4.48321 11.4026 3.96256 11.5102 3.53352 11.8028C2.63633 12.4047 2.40282 13.6174 3.00951 14.5075L3.29107 14.9154L1.44977 16.321C1.4453 16.3254 1.43636 16.3298 1.43189 16.3343C0.92465 16.7899 0.855374 17.5425 1.271 18.0846C1.52686 18.4205 1.91679 18.6 2.31566 18.6C2.55812 18.6 2.80056 18.5357 3.02181 18.3983L4.87653 17.2033C7.20831 21.7139 10.8574 22.8056 12.4563 23.0684C13.1065 23.1714 13.6998 23.473 14.1635 23.933L14.5367 24.3032L14.4462 24.393C13.9959 24.8397 13.9959 25.5669 14.4462 26.0136L16.1098 27.6641C16.3355 27.888 16.6294 28 16.9244 28C17.2193 28 17.5143 27.888 17.7389 27.6641L24.3141 21.134C24.7644 20.6873 24.7644 19.9601 24.3141 19.5134L22.6495 17.8621ZM22.1467 2.23696C21.9736 2.24139 21.8004 2.24583 21.6272 2.24583C21.4496 2.25026 21.2719 2.25027 21.0853 2.25027L23.4037 4.43841C23.9277 3.38093 24.2529 2.38773 24.3959 1.80687C23.7378 2.1505 22.9356 2.22366 22.1467 2.23696ZM17.1546 3.48512C16.777 3.88084 16.5212 4.40514 16.4307 4.96383C16.4094 5.08797 16.4439 5.22101 16.5166 5.32632L18.5713 8.00442C18.6495 8.10307 18.7657 8.16736 18.8875 8.1851C20.8864 8.44787 22.3892 6.32727 23.1567 4.92172L20.3613 2.2813C20.0194 2.30237 19.7155 2.33673 19.4429 2.38439C18.758 2.50522 17.8094 2.789 17.1546 3.48512ZM16.1011 5.76747L14.8139 6.75182C14.767 6.6709 14.71 6.59773 14.6452 6.53344L16.1491 8.73489C16.167 8.76482 16.1838 8.79475 16.2016 8.82467C16.3569 8.85904 16.5223 8.90559 16.691 8.95769L17.9301 8.15848L16.1011 5.76747ZM12.5515 5.50921C12.2654 5.50921 11.9839 5.59124 11.7414 5.75419C11.0878 6.19316 10.9135 7.08328 11.3627 7.73619L12.6677 9.64944L12.785 9.82568L13.6643 9.15947C14.1369 8.80697 14.7168 8.63404 15.3023 8.68614C15.3682 8.69057 15.433 8.69501 15.4978 8.70388L13.747 6.13662C13.5302 5.81848 13.2006 5.60787 12.8241 5.53471C12.7336 5.51808 12.642 5.50921 12.5515 5.50921ZM9.3492 6.47249C8.97156 6.39934 8.58611 6.47692 8.2699 6.69197C7.61182 7.13091 7.44309 8.02443 7.89336 8.66845L8.52574 9.59292C8.52574 9.59292 8.53021 9.59736 8.53468 9.60622C8.53915 9.60955 8.54808 9.61842 8.55255 9.62728L10.5246 12.5127C10.624 12.6623 10.7491 12.7876 10.9011 12.8907C11.3916 13.2265 12.0284 13.2265 12.5223 12.8951C12.6743 12.7964 12.7961 12.68 12.891 12.547H12.8866C12.8173 12.5249 12.7525 12.4994 12.6877 12.4694C12.6352 12.4484 12.5838 12.4218 12.5313 12.3963C12.5268 12.3963 12.5223 12.3918 12.5178 12.3918C12.31 12.2887 12.1112 12.169 11.9246 12.0183C11.6855 11.8298 11.5514 11.5461 11.5514 11.2445C11.5514 10.9308 11.6944 10.6426 11.9458 10.4531L12.3659 10.1349L10.9224 8.02438L10.2721 7.0744C10.0553 6.75626 9.72573 6.54565 9.3492 6.47249ZM6.11239 9.54306C5.79173 9.75364 5.57944 10.0807 5.5057 10.4542C5.43197 10.8322 5.51018 11.2113 5.72693 11.5339L7.69895 14.4238C8.14587 15.0723 9.04194 15.2452 9.70115 14.8018C10.2129 14.4582 10.4475 13.8352 10.2866 13.2499C10.2486 13.0992 10.1782 12.9529 10.0877 12.8154L8.11572 9.92547C8.11125 9.92104 8.10231 9.90884 8.09784 9.89998C7.88109 9.59848 7.56042 9.3923 7.19171 9.32358C7.09674 9.30695 7.00512 9.29808 6.91462 9.29808C6.63194 9.29808 6.35038 9.38011 6.11239 9.54306ZM4.6342 11.9717C4.34817 11.9717 4.06662 12.0538 3.82863 12.2167C3.16942 12.6601 2.99625 13.5546 3.44205 14.2064L4.88112 16.3137C5.00177 16.4899 5.15373 16.6318 5.33585 16.7438C5.81294 17.0275 6.41963 17.0053 6.88331 16.6961C7.20398 16.481 7.41627 16.154 7.49001 15.7805C7.56373 15.4058 7.48554 15.0234 7.26878 14.7097L5.82523 12.5991C5.61297 12.281 5.28335 12.0704 4.90682 11.9972C4.81632 11.9806 4.7247 11.9717 4.6342 11.9717ZM1.68677 17.7636C1.93816 18.0906 2.38954 18.1726 2.74038 17.9532L4.57608 16.766C4.53363 16.715 4.49005 16.6585 4.45095 16.603L3.58394 15.3349L1.77727 16.715C1.47895 16.9899 1.43985 17.441 1.68677 17.7636ZM12.5437 22.5444C13.3012 22.6697 13.9906 23.0178 14.5325 23.5554L14.9055 23.9243L20.5602 18.2977L19.6072 17.3522C19.5424 17.2879 19.5167 17.1937 19.5379 17.1072C20.0239 15.1597 19.7725 13.7885 19.7681 13.7752C19.7636 13.7674 19.7636 13.763 19.7636 13.7541C19.4387 10.5895 17.48 9.58298 15.9672 9.27816C15.8666 9.25599 15.7672 9.24379 15.6677 9.22606C15.6376 9.22162 15.6029 9.21719 15.5683 9.21276C15.4644 9.19945 15.3605 9.18726 15.261 9.17839C14.8018 9.14071 14.3515 9.26929 13.9828 9.54863L12.8823 10.3789L12.2622 10.8478C12.1404 10.942 12.0711 11.0795 12.0711 11.2302C12.0711 11.3765 12.1359 11.5107 12.2488 11.6004C12.4432 11.7589 12.6599 11.8842 12.8856 11.9784C12.9236 11.9962 12.9672 12.0128 13.0108 12.0305C13.08 12.056 13.1493 12.0815 13.2186 12.0993L13.2231 12.1037C13.2264 12.1081 13.2353 12.1081 13.2443 12.1126C13.3136 12.1381 13.5348 12.2112 13.6867 12.1902C14.8308 12.035 15.6934 11.8332 15.7023 11.8332C15.7806 11.8111 15.8677 11.8332 15.9325 11.8886L16.661 12.516C16.7269 12.5715 16.7616 12.6613 16.7481 12.7477C16.7347 12.8331 16.6789 12.9107 16.5962 12.945C16.5705 12.9539 15.9158 13.2676 15.6297 14.1189C15.3258 15.0168 15.5381 16.1564 16.2577 17.5154C16.3269 17.6395 16.2744 17.7947 16.1493 17.8634C16.0241 17.9322 15.8677 17.8801 15.7984 17.7559C15.0051 16.2649 14.7839 14.979 15.1392 13.9426C15.3638 13.2941 15.7671 12.894 16.0532 12.6789L15.6889 12.3652C15.3984 12.4262 14.67 12.5769 13.7516 12.7011C13.6298 12.7177 13.5091 12.7055 13.3963 12.6878C13.2532 12.9372 13.0544 13.1478 12.803 13.3196C12.47 13.5469 12.0879 13.6588 11.7024 13.6588C11.4075 13.6588 11.117 13.5945 10.8443 13.4615C10.8969 14.1455 10.5807 14.8205 9.99072 15.2163C9.65778 15.4446 9.27119 15.5521 8.89466 15.5521C8.59524 15.5521 8.30026 15.4834 8.03211 15.3548C8.04552 15.5266 8.04105 15.6984 8.00641 15.8703C7.90699 16.3824 7.61201 16.8247 7.17851 17.1173C6.84889 17.3412 6.45897 17.4532 6.07349 17.4532C5.90477 17.4532 5.73942 17.4321 5.57518 17.3889C7.8019 21.3318 11.0789 22.3083 12.5437 22.5444ZM16.4788 27.2864C16.7257 27.5314 17.1291 27.5314 17.376 27.2864L23.9424 20.7685C24.1893 20.5235 24.1893 20.1233 23.9424 19.8784L22.2788 18.2278C22.157 18.1026 21.9927 18.0427 21.8318 18.0427C21.6709 18.0427 21.5067 18.107 21.3849 18.2278L14.8151 24.7458C14.5682 24.9908 14.5682 25.3909 14.8151 25.6359L16.4788 27.2864Z" stroke="black"/>
<path d="M2.74038 17.9532C2.38954 18.1726 1.93816 18.0906 1.68677 17.7636C1.43985 17.441 1.47895 16.9899 1.77727 16.715L3.58394 15.3349L4.45095 16.603C4.49005 16.6585 4.53363 16.715 4.57608 16.766L2.74038 17.9532Z" stroke="black"/>
</svg>
