<svg width="222" height="231" viewBox="0 0 222 231" fill="none" xmlns="http://www.w3.org/2000/svg">
<path d="M128.266 213.569C134.88 213.569 140.297 208.213 140.297 201.609V110.739L180.063 78.4989C182.172 76.7829 183.5 74.3389 183.786 71.6349C184.047 68.9309 183.266 66.2789 181.521 64.1729C177.953 59.8309 171.495 59.1809 167.12 62.7169L134.75 88.9509C136.417 85.6489 137.38 81.9309 137.38 77.9789C137.38 64.4589 126.312 53.4609 112.719 53.4609C99.125 53.4609 88.0573 64.4589 88.0573 77.9789C88.0573 81.9309 89.0208 85.6489 90.6875 88.9509L58.3437 62.7169C53.9687 59.1809 47.5104 59.8309 43.9427 64.1729C42.224 66.2789 41.4167 68.9309 41.6771 71.6349C41.9635 74.3389 43.2656 76.7829 45.401 78.4989L85.1667 110.739V201.635C85.1667 208.213 90.5573 213.595 97.1979 213.595C103.839 213.595 109.229 208.239 109.229 201.635V158.371H116.234V201.635C116.234 208.213 121.625 213.595 128.266 213.595V213.569ZM112.745 58.6869C123.474 58.6869 132.198 67.3449 132.198 78.0049C132.198 88.6649 123.474 97.3229 112.745 97.3229C102.016 97.3229 93.2917 88.6649 93.2917 78.0049C93.2917 67.3449 102.016 58.6869 112.745 58.6869ZM106.625 153.171C105.193 153.171 104.021 154.341 104.021 155.771V201.635C104.021 205.353 100.974 208.395 97.1979 208.395C93.4219 208.395 90.375 205.353 90.375 201.635V109.491C90.375 108.711 90.0104 107.957 89.4114 107.463L48.6823 74.4429C47.6406 73.6109 46.9896 72.4149 46.8594 71.0889C46.7292 69.7629 47.1198 68.4889 47.9531 67.4489C49.6979 65.3169 52.875 65.0049 55.0364 66.7469L90.0885 95.1649C103.187 105.799 122.224 105.799 135.323 95.1649L170.375 66.7469C172.51 65.0049 175.688 65.3169 177.458 67.4489C178.292 68.4889 178.682 69.7629 178.552 71.0889C178.422 72.4149 177.771 73.6109 176.729 74.4429L136 107.463C135.401 107.957 135.036 108.711 135.036 109.491V201.609C135.036 205.327 131.99 208.369 128.214 208.369C124.438 208.369 121.391 205.327 121.391 201.609V155.745C121.391 154.315 120.219 153.145 118.786 153.145H106.573L106.625 153.171Z" stroke="black"/>
<path d="M202.146 167.965C201.469 167.575 200.635 167.497 199.906 167.757L180.193 175.115C178.839 175.609 178.161 177.117 178.656 178.469C179.151 179.821 180.661 180.497 182.016 180.003L195.115 175.115C189.151 185.593 181.339 194.797 171.807 202.519C129.802 236.579 67.7448 230.365 33.4479 188.661C28.4739 182.603 24.2291 175.973 20.8437 168.953C20.2187 167.653 18.6562 167.107 17.3802 167.731C16.0781 168.355 15.5312 169.915 16.1562 171.189C19.7239 178.573 24.1771 185.567 29.4375 191.937C49.8802 216.793 79.6719 229.663 109.698 229.663C132.719 229.663 155.896 222.097 175.089 206.523C184.958 198.515 193.057 188.999 199.307 178.209L201.156 191.235C201.339 192.535 202.458 193.471 203.734 193.471C203.865 193.471 203.969 193.471 204.099 193.471C205.531 193.263 206.521 191.963 206.312 190.533L203.37 169.837C203.266 169.057 202.797 168.381 202.12 167.965H202.146Z" stroke="black"/>
<path d="M20.1145 62.716C20.5312 62.95 20.9739 63.08 21.4427 63.08C21.7552 63.08 22.0676 63.028 22.3541 62.924L42.0676 55.566C43.4218 55.072 44.0989 53.564 43.6041 52.212C43.1093 50.86 41.5989 50.184 40.2447 50.678L27.1458 55.566C33.1093 45.088 40.9218 35.884 50.4531 28.162C92.4583 -5.89804 154.516 0.315958 188.812 42.02C193.786 48.078 198.031 54.708 201.417 61.728C201.859 62.664 202.797 63.21 203.76 63.21C204.125 63.21 204.516 63.132 204.88 62.95C206.182 62.326 206.729 60.766 206.104 59.492C202.536 52.108 198.083 45.114 192.823 38.744C156.729 -5.17003 91.3906 -11.722 47.1718 24.132C37.302 32.14 29.2031 41.63 22.9531 52.446L21.1041 39.42C20.8958 37.99 19.5937 37.002 18.1614 37.21C16.7291 37.418 15.7395 38.718 15.9479 40.148L18.8906 60.844C18.9947 61.624 19.4635 62.3 20.1406 62.716H20.1145Z" stroke="black"/>
<path d="M12.0677 151.61C17.4583 156.108 24.3854 158.838 31.9635 158.838C49.0469 158.838 62.9271 145.032 62.9271 128.054C62.9271 111.076 49.0208 97.2695 31.9635 97.2695C14.9062 97.2695 1 111.076 1 128.054C1 137.362 5.19271 145.708 11.8073 151.35C11.8854 151.454 11.9896 151.506 12.0677 151.584V151.61ZM16.4427 148.438C17.3021 140.638 23.8906 134.684 31.9635 134.684C40.0365 134.684 46.599 140.638 47.4844 148.438C43.1615 151.688 37.7969 153.638 31.9635 153.638C26.1302 153.638 20.7656 151.688 16.4427 148.438ZM27.4323 125.012C27.4323 122.542 29.4635 120.54 31.9635 120.54C34.4635 120.54 36.4948 122.542 36.4948 125.012C36.4948 127.482 34.4635 129.484 31.9896 129.484C29.4896 129.484 27.4844 127.482 27.4844 125.012H27.4323ZM6.18229 128.08C6.18229 113.988 17.7448 102.496 31.9375 102.496C46.1302 102.496 57.6927 113.962 57.6927 128.08C57.6927 134.216 55.5052 139.832 51.8854 144.252C50.0625 138.116 45.5052 133.228 39.5937 130.94C40.8698 129.302 41.6771 127.274 41.6771 125.038C41.6771 119.708 37.3021 115.366 31.9375 115.366C26.5729 115.366 22.1979 119.708 22.1979 125.038C22.1979 127.274 23.0052 129.302 24.2812 130.94C18.3698 133.228 13.8125 138.116 11.9896 144.252C8.36979 139.832 6.18229 134.216 6.18229 128.106V128.08Z" stroke="black"/>
<path d="M190.297 97.2955C173.213 97.2955 159.333 111.102 159.333 128.08C159.333 137.388 163.526 145.734 170.141 151.376C170.219 151.48 170.323 151.532 170.401 151.61C175.792 156.108 182.745 158.838 190.323 158.838C207.406 158.838 221.286 145.032 221.286 128.054C221.286 111.076 207.406 97.2695 190.323 97.2695L190.297 97.2955ZM174.776 148.438C175.635 140.638 182.224 134.684 190.297 134.684C198.37 134.684 204.932 140.638 205.818 148.438C201.495 151.688 196.13 153.638 190.297 153.638C184.463 153.638 179.099 151.688 174.776 148.438ZM185.766 125.012C185.766 122.542 187.797 120.54 190.297 120.54C192.797 120.54 194.828 122.542 194.828 125.012C194.828 127.482 192.797 129.484 190.323 129.484C187.823 129.484 185.818 127.482 185.818 125.012H185.766ZM210.245 144.226C208.422 138.09 203.864 133.202 197.953 130.914C199.229 129.276 200.036 127.248 200.036 125.012C200.036 119.682 195.661 115.34 190.297 115.34C184.932 115.34 180.557 119.682 180.557 125.012C180.557 127.248 181.364 129.276 182.641 130.914C176.729 133.202 172.172 138.09 170.349 144.226C166.729 139.806 164.542 134.19 164.542 128.08C164.542 113.988 176.104 102.496 190.297 102.496C204.49 102.496 216.052 113.962 216.052 128.08C216.052 134.216 213.864 139.832 210.245 144.226Z" stroke="black"/>
</svg>
