<svg width="210" height="210" viewBox="0 0 210 210" fill="none" xmlns="http://www.w3.org/2000/svg">
<path d="M40.5767 21.4056C29.8298 28.3335 10.2996 20.9798 2.32939 32.6247C-0.097693 36.1707 1.10126 40.8553 3.49908 50.2245L24.2217 152.029C28.9087 170.343 31.2521 179.499 38.5266 184.845C41.5041 187.033 44.5814 188.057 47.875 188.5M40.5767 21.4056C55.0072 12.1031 42.576 1 63.5 1L85.95 18.6363C94.8906 25.6604 99.3615 29.1724 99.699 34.1398C100.035 39.1071 96.0844 43.2461 88.1813 51.5242L82.4094 57.5698C78.4579 61.7089 76.4821 63.7783 74.111 63.6018C71.7398 63.4253 70.0634 61.084 66.7103 56.4011L40.5767 21.4056ZM169.756 21.4056C180.503 28.3335 200.033 20.9798 208.004 32.6247C210.431 36.1707 209.232 40.8553 206.834 50.2245L186.111 152.029C181.425 170.343 179.081 179.499 171.807 184.845C168.829 187.033 165.752 188.057 162.458 188.5M169.756 21.4056C155.326 12.1031 167.757 1 146.833 1L124.383 18.6363C115.443 25.6604 110.972 29.1724 110.634 34.1398C110.298 39.1071 114.249 43.2461 122.152 51.5242L127.924 57.5698C131.875 61.7089 133.851 63.7783 136.222 63.6018C138.594 63.4253 140.27 61.084 143.623 56.4011L169.756 21.4056Z" stroke="black" stroke-linecap="round" stroke-linejoin="round"/>
<path d="M87.3187 53.0859L96.3875 68.2062C98.5198 71.7617 99.5864 73.5394 99.9021 75.5348C100.219 77.5302 99.7541 79.5504 98.825 83.5908L79.6327 167.056C77.067 181.492 84.6896 188.52 92.0916 197.777C98.2552 205.483 101.337 209.336 105.167 209.336C108.996 209.336 112.078 205.483 118.242 197.777C125.644 188.52 133.267 181.492 130.701 167.056L111.514 83.5903C110.584 79.5501 110.12 77.53 110.436 75.5348C110.752 73.5396 111.819 71.762 113.951 68.2069L123.021 53.0859" stroke="black" stroke-linecap="round"/>
</svg>
